<?xml version="1.0" encoding="utf-8"?>
<!DOCTYPE svg PUBLIC "-//W3C//DTD SVG 20010904//EN" "http://www.w3.org/TR/2001/REC-SVG-20010904/DTD/svg10.dtd">
<svg version="1.0" xmlns="http://www.w3.org/2000/svg" width="1002pt" height="1002pt" viewBox="0 0 1002 1002" style="" preserveAspectRatio="xMidYMid meet">
<g fill="#000000FF" stroke="#000000FF">
<path d="M 213.625 244.469 C 208.712 246.220 203.292 251.345 200.900 256.500 C 199.112 260.354 199.043 267.821 199.022 461.158 L 199.000 661.816 170.607 698.773 C 154.991 719.100 141.716 736.662 141.107 737.799 C 137.771 744.034 141.260 753.852 148.020 757.248 C 151.313 758.903 170.255 758.997 501.000 758.997 C 831.745 758.997 850.687 758.903 853.980 757.248 C 860.740 753.852 864.229 744.034 860.893 737.799 C 860.284 736.662 847.009 719.100 831.393 698.773 L 803.000 661.816 802.978 461.158 C 802.957 269.202 802.877 260.327 801.134 256.500 C 798.792 251.356 792.202 245.428 787.321 244.072 C 784.667 243.335 697.053 243.023 500.500 243.049 C 262.359 243.082 216.886 243.307 213.625 244.469 M 786.500 253.000 C 789.133 254.275 791.424 256.410 792.816 258.886 L 795.000 262.772 795.000 460.386 L 795.000 658.000 501.000 658.000 L 207.000 658.000 207.000 460.386 L 207.000 262.772 209.174 258.905 C 210.527 256.498 212.887 254.275 215.424 253.019 C 219.483 251.010 220.688 251.002 500.934 251.001 C 780.330 251.000 782.398 251.014 786.500 253.000 M 818.258 695.500 C 851.047 738.055 854.000 742.073 854.000 744.142 C 854.000 745.214 852.895 747.195 851.545 748.545 L 849.091 751.000 501.000 751.000 L 152.909 751.000 150.455 748.545 C 149.105 747.195 148.000 745.197 148.000 744.105 C 148.000 743.013 150.338 739.055 153.195 735.310 C 167.706 716.286 198.724 675.977 201.720 672.248 L 205.137 667.997 501.295 668.248 L 797.453 668.500 818.258 695.500 "/></g>
<g fill="#CDCDCDFF" stroke="#CDCDCDFF">
<path d="M 216.966 252.818 C 214.307 254.001 211.459 256.413 209.700 258.973 C 208.114 261.279 208.000 274.756 208.000 459.723 L 208.000 658.000 501.000 658.000 L 794.000 658.000 794.000 459.904 C 794.000 242.221 794.483 259.240 788.166 254.500 C 785.516 252.512 783.801 252.499 502.000 252.318 C 346.075 252.217 217.810 252.442 216.966 252.818 M 777.429 268.571 C 778.846 269.989 779.000 288.281 779.000 455.000 C 779.000 621.719 778.846 640.011 777.429 641.429 C 776.008 642.850 749.537 643.000 501.000 643.000 C 252.463 643.000 225.992 642.850 224.571 641.429 C 223.154 640.011 223.000 621.719 223.000 455.000 C 223.000 288.281 223.154 269.989 224.571 268.571 C 225.992 267.150 252.463 267.000 501.000 267.000 C 749.537 267.000 776.008 267.150 777.429 268.571 "/></g>
<g fill="#000000FF" stroke="#000000FF">
<path d="M 224.668 268.665 C 224.301 269.033 224.000 352.910 224.000 455.060 C 224.000 623.495 224.147 640.843 225.582 641.393 C 227.969 642.309 775.308 642.091 776.753 641.174 C 777.750 640.541 777.954 602.531 777.753 454.439 L 777.500 268.500 501.418 268.248 C 349.574 268.110 225.036 268.297 224.668 268.665 M 770.000 455.000 L 770.000 634.000 501.000 634.000 L 232.000 634.000 232.000 455.000 L 232.000 276.000 501.000 276.000 L 770.000 276.000 770.000 455.000 "/></g>
<g fill="#FFFFFFFF" stroke="#FFFFFFFF">
<path d="M 232.132 454.999 L 232.500 633.997 501.000 633.999 L 769.500 634.000 769.256 455.250 L 769.011 276.500 634.953 276.754 L 500.896 277.007 501.198 282.017 C 501.364 284.772 501.900 286.982 502.388 286.928 C 502.877 286.874 503.657 287.430 504.123 288.165 C 504.588 288.899 504.976 325.725 504.985 370.000 L 505.000 450.500 629.663 450.242 C 741.693 450.011 754.501 450.143 756.058 451.552 C 758.195 453.486 759.016 457.280 757.574 458.553 C 756.910 459.138 708.567 459.500 631.000 459.500 L 505.500 459.500 505.259 539.500 C 505.126 583.500 505.014 620.063 505.009 620.750 C 505.003 621.540 503.529 622.000 501.000 622.000 C 498.471 622.000 496.997 621.540 496.991 620.750 C 496.986 620.063 496.874 583.500 496.741 539.500 L 496.500 459.500 371.000 459.500 C 291.300 459.500 245.099 459.146 244.401 458.530 C 243.355 457.605 243.590 454.708 244.894 452.453 C 245.227 451.877 244.753 452.214 243.840 453.203 C 242.706 454.430 240.724 455.000 237.590 455.000 L 233.000 455.000 233.000 366.004 L 233.000 277.007 366.750 276.750 L 500.500 276.493 366.132 276.246 L 231.764 276.000 232.132 454.999 M 646.077 305.491 C 647.494 305.588 649.211 306.013 649.893 306.434 C 650.575 306.855 651.399 306.934 651.725 306.609 C 652.050 306.284 652.807 306.405 653.408 306.878 C 654.777 307.958 662.241 310.481 663.250 310.205 C 663.663 310.092 664.000 310.525 664.000 311.167 C 664.000 311.808 664.273 312.060 664.606 311.727 C 664.940 311.393 666.133 311.978 667.258 313.026 C 668.383 314.073 669.685 314.695 670.151 314.406 C 670.618 314.118 671.000 314.373 671.000 314.972 C 671.000 315.572 671.649 316.312 672.442 316.616 C 674.315 317.335 683.665 326.685 684.384 328.558 C 684.688 329.351 685.353 330.000 685.860 330.000 C 686.368 330.000 687.066 331.125 687.411 332.500 C 687.756 333.875 688.506 335.000 689.078 335.000 C 689.650 335.000 689.840 335.450 689.500 336.000 C 689.160 336.550 689.385 337.000 690.000 337.000 C 690.615 337.000 690.840 337.450 690.500 338.000 C 690.160 338.550 690.434 339.000 691.108 339.000 C 691.782 339.000 692.032 339.302 691.663 339.670 C 691.295 340.039 691.680 341.389 692.520 342.670 C 693.359 343.952 693.842 345.000 693.593 345.000 C 693.344 345.000 693.582 346.463 694.122 348.250 C 696.362 355.664 696.917 364.921 695.574 372.500 C 695.185 374.700 694.709 377.400 694.516 378.500 C 694.324 379.600 694.073 380.613 693.958 380.750 C 693.844 380.888 693.678 381.338 693.590 381.750 C 693.501 382.163 692.807 383.625 692.046 385.000 C 691.285 386.375 690.725 387.500 690.803 387.500 C 690.880 387.500 690.679 388.513 690.355 389.750 C 690.032 390.988 689.343 392.000 688.824 392.000 C 688.306 392.000 688.160 392.450 688.500 393.000 C 688.840 393.550 688.641 394.000 688.059 394.000 C 687.477 394.000 687.000 394.627 687.000 395.393 C 687.000 396.159 686.321 397.047 685.491 397.365 C 684.661 397.684 684.075 398.294 684.190 398.722 C 684.447 399.684 674.052 410.000 672.826 410.000 C 672.337 410.000 671.694 410.634 671.396 411.410 C 671.099 412.185 669.763 413.094 668.428 413.429 C 667.092 413.764 666.000 414.506 666.000 415.078 C 666.000 415.650 665.550 415.840 665.000 415.500 C 664.450 415.160 664.000 415.385 664.000 416.000 C 664.000 416.615 663.550 416.840 663.000 416.500 C 662.450 416.160 662.000 416.434 662.000 417.108 C 662.000 417.782 661.716 418.049 661.369 417.702 C 661.021 417.355 659.784 417.600 658.619 418.248 C 657.453 418.895 656.178 419.335 655.785 419.224 C 655.391 419.114 653.816 419.506 652.285 420.097 C 645.456 422.730 629.041 422.998 625.067 420.541 C 624.407 420.133 623.601 420.066 623.275 420.391 C 622.950 420.716 622.193 420.595 621.592 420.122 C 620.339 419.134 612.695 416.556 612.112 416.925 C 611.898 417.060 611.448 416.791 611.112 416.326 C 610.463 415.430 601.847 409.605 601.000 409.490 C 599.960 409.348 591.594 400.465 591.801 399.722 C 591.921 399.294 591.339 398.684 590.509 398.365 C 589.679 398.047 589.000 397.197 589.000 396.476 C 589.000 395.756 588.663 395.017 588.250 394.833 C 587.413 394.461 582.792 385.245 582.403 383.172 C 582.266 382.441 581.832 381.091 581.438 380.172 C 580.117 377.087 579.881 374.556 579.881 363.500 C 579.881 353.973 580.297 348.143 581.042 347.250 C 581.156 347.113 581.363 346.550 581.500 346.000 C 581.638 345.450 581.863 344.775 582.000 344.500 C 582.138 344.225 582.335 343.663 582.438 343.250 C 582.910 341.369 587.580 332.465 588.250 332.167 C 588.663 331.983 589.000 331.196 589.000 330.417 C 589.000 329.638 589.464 329.000 590.031 329.000 C 590.599 329.000 591.330 328.305 591.656 327.455 C 592.201 326.033 599.862 318.000 600.673 318.000 C 600.868 318.000 601.863 318.522 602.885 319.160 C 604.393 320.102 605.316 319.911 607.801 318.142 C 610.034 316.552 611.081 316.282 611.680 317.142 C 612.255 317.970 612.388 317.900 612.124 316.910 C 610.960 312.543 611.297 311.183 613.851 309.949 C 615.308 309.244 617.098 308.552 617.828 308.411 C 618.559 308.270 619.909 307.832 620.828 307.438 C 622.832 306.580 624.137 306.314 629.897 305.591 C 632.315 305.288 634.565 304.767 634.897 304.434 C 635.229 304.100 637.300 304.162 639.500 304.571 C 641.700 304.980 644.659 305.394 646.077 305.491 M 650.500 489.316 C 654.397 490.108 666.253 495.443 671.330 498.690 C 674.836 500.932 683.635 509.606 684.384 511.558 C 684.688 512.351 685.428 513.000 686.028 513.000 C 686.627 513.000 686.882 513.382 686.594 513.849 C 686.305 514.315 686.927 515.617 687.974 516.742 C 689.022 517.867 689.607 519.060 689.273 519.394 C 688.940 519.727 689.218 520.000 689.892 520.000 C 690.566 520.000 690.840 520.450 690.500 521.000 C 690.160 521.550 690.434 522.000 691.108 522.000 C 691.782 522.000 692.049 522.284 691.702 522.631 C 691.355 522.979 691.600 524.216 692.248 525.381 C 692.895 526.547 693.335 527.822 693.224 528.215 C 693.114 528.609 693.506 530.184 694.097 531.715 C 696.248 537.296 696.962 548.731 695.580 555.500 C 695.244 557.150 694.788 559.625 694.567 561.000 C 694.347 562.375 694.073 563.613 693.958 563.750 C 693.844 563.888 693.678 564.338 693.590 564.750 C 693.501 565.163 692.867 566.513 692.179 567.750 C 691.492 568.988 691.201 570.000 691.533 570.000 C 691.865 570.000 691.219 571.288 690.098 572.863 C 688.976 574.437 688.346 576.012 688.696 576.363 C 689.047 576.713 688.808 577.000 688.167 577.000 C 687.525 577.000 687.000 577.627 687.000 578.393 C 687.000 579.159 686.261 580.070 685.357 580.417 C 684.453 580.763 683.930 581.263 684.194 581.527 C 684.457 581.791 682.048 584.632 678.840 587.840 C 675.632 591.048 672.791 593.457 672.527 593.194 C 672.263 592.930 671.763 593.453 671.417 594.357 C 671.070 595.261 670.159 596.000 669.393 596.000 C 668.627 596.000 668.000 596.525 668.000 597.167 C 668.000 597.808 667.713 598.047 667.363 597.696 C 667.012 597.346 665.437 597.976 663.863 599.098 C 662.288 600.219 661.000 600.865 661.000 600.533 C 661.000 600.201 659.988 600.492 658.750 601.179 C 657.513 601.867 656.163 602.501 655.750 602.590 C 655.338 602.678 654.888 602.844 654.750 602.958 C 654.613 603.073 653.600 603.324 652.500 603.516 C 651.400 603.709 648.700 604.185 646.500 604.574 C 638.733 605.950 628.440 605.304 622.666 603.078 C 621.107 602.477 619.458 602.217 619.001 602.499 C 618.545 602.781 618.013 602.540 617.821 601.962 C 617.628 601.384 616.465 600.835 615.235 600.743 C 614.006 600.650 613.000 600.194 613.000 599.728 C 613.000 599.263 612.550 599.160 612.000 599.500 C 611.450 599.840 611.000 599.566 611.000 598.892 C 611.000 598.218 610.727 597.940 610.394 598.273 C 610.060 598.607 608.867 598.022 607.742 596.974 C 606.617 595.927 605.362 595.276 604.953 595.529 C 604.544 595.782 603.952 595.316 603.636 594.494 C 603.321 593.672 602.658 593.000 602.163 593.000 C 601.257 593.000 591.627 583.932 591.542 583.000 C 591.517 582.725 590.544 581.150 589.379 579.500 C 586.841 575.905 582.707 568.028 582.385 566.172 C 582.258 565.441 581.832 564.091 581.438 563.172 C 580.117 560.087 579.881 557.556 579.881 546.500 C 579.881 536.973 580.297 531.143 581.042 530.250 C 581.156 530.113 581.363 529.550 581.500 529.000 C 581.638 528.450 581.863 527.775 582.000 527.500 C 582.138 527.225 582.335 526.663 582.438 526.250 C 582.910 524.369 587.580 515.465 588.250 515.167 C 588.663 514.983 589.000 514.244 589.000 513.524 C 589.000 512.803 589.675 511.955 590.500 511.638 C 591.325 511.322 592.000 510.568 592.000 509.964 C 592.000 508.713 598.379 502.452 600.471 501.649 C 601.232 501.358 602.376 501.748 603.014 502.517 C 603.994 503.698 604.499 503.613 606.264 501.969 C 607.413 500.899 609.110 499.782 610.036 499.488 C 611.144 499.137 611.625 498.087 611.442 496.421 C 611.183 494.066 612.777 492.704 617.250 491.459 C 617.663 491.344 618.225 491.138 618.500 491.000 C 618.775 490.863 619.450 490.638 620.000 490.500 C 620.550 490.363 621.113 490.156 621.250 490.042 C 621.388 489.927 622.512 489.721 623.750 489.584 C 624.987 489.447 626.227 489.107 626.505 488.829 C 627.068 488.266 647.358 488.678 650.500 489.316 M 377.500 489.363 C 378.600 489.613 380.500 490.132 381.721 490.518 C 382.943 490.903 384.170 491.188 384.448 491.150 C 384.925 491.086 393.764 495.955 398.824 499.069 C 401.853 500.934 410.672 509.703 411.384 511.558 C 411.688 512.351 412.428 513.000 413.028 513.000 C 413.627 513.000 413.882 513.382 413.594 513.849 C 413.305 514.315 413.927 515.617 414.974 516.742 C 416.022 517.867 416.607 519.060 416.273 519.394 C 415.940 519.727 416.218 520.000 416.892 520.000 C 417.566 520.000 417.840 520.450 417.500 521.000 C 417.160 521.550 417.263 522.000 417.728 522.000 C 418.194 522.000 418.650 523.006 418.743 524.235 C 418.835 525.465 419.384 526.628 419.962 526.821 C 420.540 527.013 420.781 527.545 420.499 528.001 C 420.217 528.458 420.477 530.107 421.078 531.666 C 423.304 537.440 423.950 547.733 422.574 555.500 C 422.185 557.700 421.709 560.400 421.516 561.500 C 421.324 562.600 421.073 563.613 420.958 563.750 C 420.844 563.888 420.678 564.338 420.590 564.750 C 420.501 565.163 419.867 566.513 419.179 567.750 C 418.492 568.988 418.201 570.000 418.533 570.000 C 418.865 570.000 418.219 571.288 417.098 572.863 C 415.976 574.437 415.346 576.012 415.696 576.363 C 416.047 576.713 415.808 577.000 415.167 577.000 C 414.525 577.000 414.000 577.627 414.000 578.393 C 414.000 579.159 413.261 580.070 412.357 580.417 C 411.453 580.763 410.930 581.263 411.194 581.527 C 411.457 581.791 409.048 584.632 405.840 587.840 C 402.632 591.048 399.791 593.457 399.527 593.194 C 399.263 592.930 398.763 593.453 398.417 594.357 C 398.070 595.261 397.159 596.000 396.393 596.000 C 395.627 596.000 395.000 596.477 395.000 597.059 C 395.000 597.641 394.550 597.840 394.000 597.500 C 393.450 597.160 393.000 597.306 393.000 597.824 C 393.000 598.578 389.660 600.078 388.727 599.743 C 388.602 599.699 387.375 600.285 386.000 601.046 C 384.625 601.807 383.163 602.501 382.750 602.590 C 382.338 602.678 381.888 602.844 381.750 602.958 C 381.613 603.073 380.600 603.324 379.500 603.516 C 378.400 603.709 375.700 604.185 373.500 604.574 C 365.733 605.950 355.440 605.304 349.666 603.078 C 348.107 602.477 346.458 602.217 346.001 602.499 C 345.545 602.781 345.013 602.540 344.821 601.962 C 344.628 601.384 343.465 600.835 342.235 600.743 C 341.006 600.650 340.000 600.194 340.000 599.728 C 340.000 599.263 339.550 599.160 339.000 599.500 C 338.450 599.840 338.000 599.566 338.000 598.892 C 338.000 598.218 337.727 597.940 337.394 598.273 C 337.060 598.607 335.867 598.022 334.742 596.974 C 333.617 595.927 332.362 595.276 331.953 595.529 C 331.544 595.782 330.952 595.316 330.636 594.494 C 330.321 593.672 329.658 593.000 329.163 593.000 C 327.813 593.000 318.849 583.933 316.805 580.500 C 313.355 574.707 309.617 567.487 309.387 566.172 C 309.259 565.441 308.832 564.091 308.438 563.172 C 307.117 560.087 306.881 557.556 306.881 546.500 C 306.881 536.973 307.297 531.143 308.042 530.250 C 308.156 530.113 308.363 529.550 308.500 529.000 C 308.638 528.450 308.863 527.775 309.000 527.500 C 309.138 527.225 309.335 526.663 309.438 526.250 C 309.910 524.369 314.580 515.465 315.250 515.167 C 315.663 514.983 316.000 514.244 316.000 513.524 C 316.000 512.803 316.675 511.955 317.500 511.638 C 318.325 511.322 319.000 510.568 319.000 509.964 C 319.000 508.720 325.374 502.454 327.451 501.657 C 329.129 501.013 332.000 504.026 332.000 506.432 C 332.000 507.408 330.016 510.522 327.591 513.353 L 323.181 518.500 328.117 513.500 C 332.322 509.241 332.988 508.043 332.616 505.413 C 332.255 502.868 332.662 502.040 334.928 500.702 C 337.089 499.425 337.952 499.337 338.961 500.289 C 340.001 501.270 340.029 501.081 339.109 499.291 C 338.484 498.075 338.092 496.502 338.236 495.795 C 338.504 494.489 344.000 490.524 344.000 491.637 C 344.000 491.971 344.675 491.685 345.500 491.000 C 346.325 490.315 347.000 490.090 347.000 490.500 C 347.000 490.910 347.604 490.744 348.342 490.131 C 349.080 489.519 349.946 489.280 350.267 489.600 C 350.588 489.921 351.597 489.765 352.511 489.254 C 354.115 488.356 373.432 488.440 377.500 489.363 "/></g>
<g fill="#CDCDCDFF" stroke="#CDCDCDFF">
<path d="M 196.763 679.748 C 160.049 727.090 149.000 742.011 149.000 744.251 C 149.000 745.592 149.823 747.435 150.829 748.345 C 152.523 749.878 178.279 750.000 501.174 750.000 C 837.541 750.000 849.748 749.936 851.345 748.171 C 852.255 747.165 852.980 745.253 852.956 743.921 C 852.927 742.321 843.494 729.292 825.139 705.500 L 797.365 669.500 501.233 669.248 L 205.101 668.997 196.763 679.748 M 791.708 692.875 C 806.564 713.959 812.000 722.045 812.000 723.059 C 812.000 723.577 811.100 724.900 810.000 726.000 C 808.009 727.991 806.667 728.000 501.434 728.000 C 304.809 728.000 194.217 727.651 193.052 727.028 C 190.525 725.675 189.800 723.248 191.156 720.678 C 192.233 718.635 195.607 713.752 213.046 688.998 L 220.093 678.996 501.189 679.248 L 782.285 679.500 791.708 692.875 "/></g>
<g fill="#000000FF" stroke="#000000FF">
<path d="M 220.217 680.750 C 217.639 683.000 191.843 719.935 191.229 722.255 C 190.973 723.221 191.322 724.683 192.004 725.505 C 193.100 726.826 229.147 727.000 501.000 727.000 C 772.853 727.000 808.900 726.826 809.996 725.505 C 810.678 724.683 811.027 723.221 810.771 722.255 C 810.157 719.935 784.361 683.000 781.783 680.750 C 779.884 679.092 765.073 679.000 501.000 679.000 C 236.927 679.000 222.116 679.092 220.217 680.750 M 787.500 702.590 C 793.000 710.572 797.650 717.530 797.833 718.052 C 798.034 718.622 792.176 719.000 783.131 719.000 L 768.096 719.000 764.548 712.946 C 762.597 709.617 761.000 706.692 761.000 706.446 C 761.000 706.201 763.420 706.000 766.378 706.000 C 772.312 706.000 774.361 704.571 773.827 700.805 C 773.518 698.626 773.024 698.484 764.791 698.212 C 755.438 697.902 754.965 697.627 751.107 690.250 L 749.930 688.000 763.715 688.038 L 777.500 688.077 787.500 702.590 M 249.082 693.212 L 246.092 697.924 236.902 698.212 C 229.440 698.446 227.505 698.829 226.611 700.250 C 224.469 703.655 227.000 705.468 234.354 705.796 C 238.009 705.958 241.000 706.272 241.000 706.492 C 241.000 706.713 239.403 709.617 237.452 712.946 L 233.904 719.000 218.869 719.000 C 209.824 719.000 203.966 718.622 204.167 718.052 C 204.350 717.530 209.000 710.564 214.500 702.571 L 224.500 688.038 238.286 688.269 L 252.072 688.500 249.082 693.212 M 645.565 711.250 C 646.515 714.138 647.499 717.063 647.753 717.750 C 648.109 718.715 644.780 719.000 633.146 719.000 L 618.077 719.000 617.094 715.250 C 616.553 713.188 615.812 710.263 615.447 708.750 L 614.783 706.000 629.311 706.000 L 643.839 706.000 645.565 711.250 M 386.553 708.750 C 386.188 710.263 385.447 713.188 384.906 715.250 L 383.923 719.000 368.854 719.000 C 357.220 719.000 353.891 718.715 354.247 717.750 C 354.501 717.063 355.485 714.138 356.435 711.250 L 358.161 706.000 372.689 706.000 L 387.217 706.000 386.553 708.750 M 570.349 707.750 C 570.614 708.713 571.124 711.650 571.481 714.277 L 572.131 719.054 557.315 718.777 L 542.500 718.500 542.202 712.250 L 541.905 706.000 555.885 706.000 C 568.349 706.000 569.918 706.190 570.349 707.750 M 459.798 712.250 L 459.500 718.500 444.685 718.777 L 429.869 719.054 430.519 714.277 C 431.736 705.324 430.462 706.000 446.115 706.000 L 460.095 706.000 459.798 712.250 M 533.553 711.575 C 533.955 714.796 533.846 717.554 533.294 718.106 C 532.754 718.646 526.520 718.939 518.920 718.780 L 505.500 718.500 505.202 712.250 L 504.905 706.000 518.880 706.000 L 532.856 706.000 533.553 711.575 M 496.798 712.250 L 496.500 718.500 483.080 718.780 C 475.480 718.939 469.246 718.646 468.706 718.106 C 468.154 717.554 468.045 714.796 468.447 711.575 L 469.144 706.000 483.120 706.000 L 497.095 706.000 496.798 712.250 M 607.667 711.500 C 609.734 719.484 610.548 719.000 595.059 719.000 C 587.391 719.000 580.911 718.663 580.659 718.250 C 580.406 717.838 579.876 714.899 579.481 711.721 L 578.762 705.942 592.567 706.221 L 606.372 706.500 607.667 711.500 M 422.515 711.750 C 422.122 714.913 421.594 717.838 421.341 718.250 C 421.089 718.663 414.609 719.000 406.941 719.000 C 396.452 719.000 393.001 718.690 393.006 717.750 C 393.011 716.601 394.544 710.206 395.523 707.250 C 395.827 706.331 399.554 706.000 409.584 706.000 L 423.230 706.000 422.515 711.750 M 681.867 711.133 C 685.271 719.325 685.737 719.000 670.580 719.000 L 657.161 719.000 655.435 713.750 C 654.485 710.863 653.501 707.938 653.247 707.250 C 652.893 706.289 655.901 706.000 666.260 706.000 L 679.733 706.000 681.867 711.133 M 348.753 707.250 C 348.499 707.938 347.515 710.863 346.565 713.750 L 344.839 719.000 331.420 719.000 C 316.263 719.000 316.729 719.325 320.133 711.133 L 322.267 706.000 335.740 706.000 C 346.099 706.000 349.107 706.289 348.753 707.250 M 717.986 711.971 C 719.644 715.256 721.000 718.181 721.000 718.471 C 721.000 718.762 715.205 719.000 708.122 719.000 C 699.027 719.000 694.940 718.632 694.205 717.748 C 693.634 717.059 692.235 714.134 691.098 711.248 L 689.029 706.000 702.000 706.000 L 714.971 706.000 717.986 711.971 M 310.902 711.248 C 309.765 714.134 308.366 717.059 307.795 717.748 C 307.060 718.632 302.973 719.000 293.878 719.000 C 286.795 719.000 281.000 718.762 281.000 718.471 C 281.000 718.181 282.356 715.256 284.014 711.971 L 287.029 706.000 300.000 706.000 L 312.971 706.000 310.902 711.248 M 753.766 711.406 C 755.545 714.380 757.000 717.318 757.000 717.936 C 757.000 718.724 753.184 718.976 744.250 718.780 L 731.500 718.500 728.195 712.250 L 724.890 706.000 737.711 706.000 L 750.533 706.000 753.766 711.406 M 273.805 712.250 L 270.500 718.500 257.750 718.780 C 248.816 718.976 245.000 718.724 245.000 717.936 C 245.000 717.318 246.455 714.380 248.234 711.406 L 251.467 706.000 264.289 706.000 L 277.110 706.000 273.805 712.250 M 639.406 692.678 C 640.283 695.251 641.000 697.513 641.000 697.706 C 641.000 697.898 634.616 697.930 626.814 697.777 L 612.628 697.500 611.418 692.750 L 610.207 688.000 624.010 688.000 L 637.812 688.000 639.406 692.678 M 390.582 692.750 L 389.372 697.500 375.186 697.777 C 367.384 697.930 361.000 697.898 361.000 697.706 C 361.000 697.513 361.717 695.251 362.594 692.678 L 364.188 688.000 377.990 688.000 L 391.793 688.000 390.582 692.750 M 533.000 693.028 L 533.000 698.056 519.250 697.778 L 505.500 697.500 505.195 692.750 L 504.890 688.000 518.945 688.000 L 533.000 688.000 533.000 693.028 M 496.805 692.750 L 496.500 697.500 482.750 697.778 L 469.000 698.056 469.000 693.028 L 469.000 688.000 483.055 688.000 L 497.110 688.000 496.805 692.750 M 568.000 689.875 C 568.000 690.906 568.284 693.169 568.631 694.904 L 569.262 698.058 555.381 697.779 L 541.500 697.500 541.195 692.750 L 540.890 688.000 554.445 688.000 C 567.032 688.000 568.000 688.134 568.000 689.875 M 460.805 692.750 L 460.500 697.500 446.619 697.779 L 432.738 698.058 433.369 694.904 C 433.716 693.169 434.000 690.906 434.000 689.875 C 434.000 688.134 434.968 688.000 447.555 688.000 L 461.110 688.000 460.805 692.750 M 602.881 692.443 C 603.497 694.886 604.000 697.136 604.000 697.443 C 604.000 697.749 598.136 698.000 590.969 698.000 C 581.419 698.000 577.833 697.666 577.547 696.750 C 577.332 696.063 576.875 693.813 576.533 691.750 L 575.909 688.000 588.836 688.000 L 601.763 688.000 602.881 692.443 M 425.467 691.750 C 425.125 693.813 424.668 696.063 424.453 696.750 C 424.167 697.666 420.581 698.000 411.031 698.000 C 403.864 698.000 398.000 697.749 398.000 697.443 C 398.000 697.136 398.503 694.886 399.119 692.443 L 400.237 688.000 413.164 688.000 L 426.091 688.000 425.467 691.750 M 674.250 692.264 C 675.213 694.605 676.000 696.854 676.000 697.261 C 676.000 697.667 670.192 698.000 663.094 698.000 L 650.188 698.000 648.594 693.322 C 647.717 690.749 647.000 688.499 647.000 688.322 C 647.000 688.145 652.738 688.002 659.750 688.004 L 672.500 688.007 674.250 692.264 M 355.000 688.322 C 355.000 688.499 354.283 690.749 353.406 693.322 L 351.812 698.000 338.906 698.000 C 331.808 698.000 326.000 697.667 326.000 697.261 C 326.000 696.854 326.788 694.605 327.750 692.264 L 329.500 688.007 342.250 688.004 C 349.263 688.002 355.000 688.145 355.000 688.322 M 708.391 692.020 C 709.276 694.231 710.000 696.481 710.000 697.020 C 710.000 697.605 705.177 698.000 698.026 698.000 L 686.051 698.000 684.652 695.250 C 683.883 693.738 682.941 691.488 682.559 690.250 L 681.865 688.000 694.324 688.000 L 706.783 688.000 708.391 692.020 M 319.441 690.250 C 319.059 691.488 318.117 693.738 317.348 695.250 L 315.949 698.000 303.974 698.000 C 296.823 698.000 292.000 697.605 292.000 697.020 C 292.000 696.481 292.724 694.231 293.609 692.020 L 295.217 688.000 307.676 688.000 L 320.135 688.000 319.441 690.250 M 742.458 692.338 C 743.856 694.724 745.000 696.974 745.000 697.338 C 745.000 697.702 739.608 698.000 733.017 698.000 L 721.034 698.000 718.500 693.000 L 715.966 688.000 727.941 688.000 L 739.916 688.000 742.458 692.338 M 283.500 693.000 L 280.966 698.000 268.983 698.000 C 262.392 698.000 257.000 697.702 257.000 697.338 C 257.000 696.974 258.144 694.724 259.542 692.338 L 262.084 688.000 274.059 688.000 L 286.034 688.000 283.500 693.000 "/></g>
<g fill="#5CB2FFFF" stroke="#5CB2FFFF">
<path d="M 233.000 366.000 L 233.000 455.000 237.455 455.000 C 240.873 455.000 242.491 454.418 244.409 452.500 L 246.909 450.000 270.887 450.000 C 294.241 450.000 294.882 449.946 295.521 447.934 C 295.881 446.798 298.125 443.022 300.507 439.543 L 304.838 433.218 301.731 432.596 C 300.023 432.255 298.169 432.431 297.613 432.988 C 295.087 435.513 289.000 432.937 289.000 429.343 C 289.000 428.511 290.633 426.405 292.628 424.665 C 299.886 418.334 300.761 410.367 296.008 393.879 C 290.570 375.014 289.844 360.380 293.486 343.067 C 296.973 326.490 305.396 311.093 316.176 301.592 C 325.831 293.082 343.413 286.072 355.242 286.017 C 357.913 286.005 359.340 286.572 360.232 288.000 C 361.033 289.283 362.564 290.000 364.500 290.000 C 366.436 290.000 367.967 289.283 368.768 288.000 C 370.296 285.553 374.549 285.417 384.500 287.499 C 408.874 292.599 427.453 311.566 434.728 338.776 C 436.969 347.156 437.340 350.642 437.414 364.000 C 437.495 378.630 437.320 380.118 434.290 390.500 C 428.282 411.084 428.520 416.657 435.697 423.534 C 439.515 427.192 440.140 428.308 439.592 430.488 C 438.794 433.668 436.555 434.648 433.082 433.337 C 431.486 432.735 429.419 432.694 427.804 433.232 L 425.149 434.117 430.282 442.059 L 435.415 450.000 465.707 450.000 L 496.000 450.000 496.000 370.000 C 496.000 291.333 496.033 289.967 498.000 288.000 C 499.407 286.593 500.000 284.667 500.000 281.500 L 500.000 277.000 366.500 277.000 L 233.000 277.000 233.000 366.000 "/></g>
<g fill="#000000FF" stroke="#000000FF">
<path d="M 341.202 289.022 C 330.374 291.859 322.527 296.460 313.896 305.033 C 300.721 318.121 293.409 336.399 292.309 359.000 C 291.673 372.037 292.862 381.621 296.573 393.400 C 301.635 409.467 300.644 419.119 293.360 424.675 C 290.727 426.683 289.970 427.936 290.199 429.908 C 290.649 433.786 295.649 434.008 300.003 430.344 C 307.766 423.812 310.046 410.843 306.000 396.243 C 304.900 392.273 304.000 388.819 304.000 388.566 C 304.000 388.313 306.521 389.433 309.602 391.053 C 312.682 392.674 316.484 394.000 318.049 394.000 C 319.906 394.000 323.130 395.693 327.333 398.874 C 330.875 401.555 335.849 404.541 338.386 405.510 C 341.971 406.879 343.000 407.771 343.000 409.508 C 343.000 411.331 342.285 411.859 339.135 412.362 C 337.010 412.702 331.497 414.856 326.885 417.150 C 320.243 420.452 316.730 423.105 309.985 429.909 C 305.239 434.697 299.927 441.254 297.985 444.720 L 294.500 450.941 270.450 450.970 C 253.113 450.992 246.065 451.335 245.200 452.200 C 243.616 453.784 243.662 457.933 245.271 458.551 C 245.970 458.819 302.783 459.142 371.521 459.269 L 496.500 459.500 497.000 540.500 L 497.500 621.500 501.000 621.500 L 504.500 621.500 505.000 540.500 L 505.500 459.500 631.500 459.000 L 757.500 458.500 757.827 456.195 C 758.607 450.692 766.154 451.000 630.378 451.000 L 505.000 451.000 505.000 370.035 C 505.000 290.094 504.975 289.057 503.000 288.000 C 501.579 287.240 500.421 287.240 499.000 288.000 C 497.025 289.057 497.000 290.094 497.000 370.035 L 497.000 451.000 465.750 450.998 L 434.500 450.995 431.715 445.665 C 423.729 430.381 406.393 416.371 390.917 412.695 C 386.979 411.759 386.000 411.113 386.000 409.447 C 386.000 407.863 387.347 406.810 391.660 405.022 C 394.773 403.732 399.716 400.724 402.646 398.338 C 406.024 395.586 408.983 393.992 410.736 393.978 C 413.826 393.953 421.554 390.713 424.170 388.346 C 425.709 386.953 425.685 387.425 423.920 393.151 C 420.927 402.860 420.355 413.542 422.485 419.955 C 424.892 427.203 430.910 433.235 435.309 432.809 C 437.918 432.556 438.556 432.018 438.806 429.858 C 439.038 427.858 438.366 426.684 436.041 425.029 C 428.532 419.682 427.685 410.208 433.087 392.000 C 436.411 380.800 436.498 380.056 436.412 363.500 C 436.309 343.712 434.721 336.092 427.759 322.000 C 422.142 310.628 410.758 298.926 400.254 293.725 C 391.939 289.609 380.325 286.726 373.908 287.185 C 369.769 287.481 369.481 287.693 369.193 290.665 C 368.851 294.194 369.234 294.416 377.500 295.469 C 399.707 298.297 417.320 313.568 424.502 336.222 C 426.835 343.580 428.646 353.000 427.728 353.000 C 427.453 353.000 425.940 352.328 424.364 351.506 C 422.789 350.685 419.896 350.010 417.935 350.006 C 414.496 350.000 414.232 349.728 410.435 342.250 C 406.895 335.278 406.210 334.500 403.609 334.500 C 398.712 334.500 398.194 337.006 401.717 343.659 C 410.106 359.505 410.094 376.146 401.683 387.206 C 398.217 391.765 389.840 397.375 384.014 399.041 C 375.842 401.377 364.782 402.238 356.571 401.178 C 340.022 399.042 330.230 393.275 324.953 382.557 C 319.259 370.990 319.874 358.282 326.778 344.861 C 330.828 336.987 330.495 334.500 325.391 334.500 C 322.793 334.500 322.121 335.260 318.756 342.000 L 315.012 349.500 309.948 350.148 C 307.162 350.504 304.009 351.586 302.942 352.553 C 301.084 354.234 301.000 354.228 301.007 352.405 C 301.025 347.380 305.464 332.906 309.220 325.624 C 314.100 316.160 323.650 305.992 331.675 301.715 C 337.418 298.654 350.482 295.000 355.681 295.000 C 358.286 295.000 359.296 294.444 360.168 292.530 C 362.784 286.790 355.126 285.374 341.202 289.022 M 343.972 424.481 C 350.376 428.791 355.481 430.217 364.500 430.217 C 373.643 430.217 379.398 428.594 385.339 424.340 L 390.178 420.875 394.616 422.688 C 405.323 427.060 418.609 438.778 423.606 448.258 L 425.059 451.016 364.391 450.758 L 303.723 450.500 309.255 443.147 C 316.079 434.076 322.401 428.729 331.472 424.359 C 335.306 422.512 338.524 421.000 338.621 421.000 C 338.719 421.000 341.127 422.566 343.972 424.481 M 378.000 414.301 C 378.000 418.902 377.844 419.167 374.258 420.666 C 369.940 422.470 356.978 422.145 353.250 420.140 C 351.406 419.148 351.000 418.079 351.000 414.215 L 351.000 409.500 364.500 409.500 L 378.000 409.500 378.000 414.301 M 421.975 359.975 C 424.520 362.520 425.385 366.094 424.697 371.224 C 424.052 376.032 421.643 379.609 416.908 382.789 L 413.500 385.078 414.744 380.289 C 415.428 377.655 415.990 371.563 415.994 366.750 C 416.000 358.669 416.153 358.000 418.000 358.000 C 419.100 358.000 420.889 358.889 421.975 359.975 M 313.000 366.341 C 313.000 370.929 313.658 376.870 314.463 379.544 C 315.268 382.219 315.790 384.544 315.622 384.711 C 315.455 384.878 313.784 383.996 311.909 382.749 C 305.381 378.411 302.242 368.301 305.479 362.041 C 307.012 359.076 308.269 358.213 311.250 358.079 C 312.783 358.010 313.000 359.034 313.000 366.341 "/></g>
<g fill="#FFFFFFFF" stroke="#FFFFFFFF">
<path d="M 369.200 287.200 C 368.540 287.860 368.000 288.958 368.000 289.640 C 368.000 290.350 366.400 291.012 364.250 291.190 C 362.188 291.360 360.500 292.025 360.500 292.667 C 360.500 294.690 359.009 295.447 354.691 295.615 C 349.355 295.822 343.046 296.851 341.611 297.749 C 341.000 298.131 339.844 298.543 339.042 298.664 C 336.490 299.049 330.000 302.271 330.000 303.152 C 330.000 303.618 329.325 304.000 328.500 304.000 C 327.675 304.000 327.000 304.450 327.000 305.000 C 327.000 305.550 326.421 306.000 325.712 306.000 C 324.088 306.000 315.000 315.149 315.000 316.784 C 315.000 317.453 314.550 318.000 314.000 318.000 C 313.450 318.000 313.000 318.675 313.000 319.500 C 313.000 320.325 312.627 321.000 312.171 321.000 C 311.259 321.000 306.296 331.052 306.835 331.807 C 307.020 332.065 306.659 332.593 306.034 332.979 C 305.409 333.365 304.780 334.785 304.636 336.133 C 304.492 337.481 304.077 339.066 303.714 339.654 C 303.351 340.242 302.810 342.247 302.512 344.111 C 300.772 355.004 300.781 354.627 302.302 352.750 C 303.082 351.788 304.432 351.000 305.301 351.000 C 306.171 351.000 307.148 350.570 307.473 350.044 C 307.798 349.518 308.726 349.341 309.534 349.652 C 313.156 351.041 315.661 349.097 318.074 343.021 C 319.389 339.709 320.811 337.000 321.233 337.000 C 321.655 337.000 322.000 336.355 322.000 335.566 C 322.000 333.111 327.266 333.211 329.287 335.705 C 331.144 337.996 330.605 340.132 327.250 343.783 C 326.069 345.067 325.614 346.554 325.882 348.250 C 325.947 348.663 325.621 349.000 325.158 349.000 C 324.066 349.000 321.735 356.762 322.470 357.951 C 322.779 358.452 322.563 359.152 321.989 359.507 C 320.554 360.394 321.405 375.578 322.996 377.495 C 323.683 378.323 323.953 379.000 323.597 379.000 C 322.928 379.000 325.802 385.109 326.890 386.000 C 327.225 386.275 327.987 387.400 328.582 388.500 C 329.177 389.600 330.639 390.944 331.832 391.487 C 333.024 392.030 334.000 392.808 334.000 393.217 C 334.000 393.625 335.800 394.878 338.000 396.000 C 340.200 397.122 342.000 397.751 342.000 397.398 C 342.000 397.044 342.675 397.315 343.500 398.000 C 344.325 398.685 345.000 398.910 345.000 398.500 C 345.000 398.090 345.655 398.299 346.456 398.964 C 347.257 399.628 348.351 399.901 348.887 399.570 C 349.423 399.238 350.117 399.380 350.429 399.885 C 351.693 401.931 374.396 401.711 382.055 399.578 C 386.308 398.393 394.000 394.692 394.000 393.829 C 394.000 393.373 394.640 393.000 395.422 393.000 C 397.180 393.000 404.139 385.034 403.411 383.855 C 403.120 383.385 403.324 383.000 403.863 383.000 C 405.612 383.000 407.206 376.030 407.439 367.370 C 407.564 362.718 407.284 358.676 406.817 358.387 C 406.350 358.098 406.238 357.423 406.570 356.887 C 406.901 356.351 406.628 355.257 405.964 354.456 C 405.299 353.655 405.090 353.000 405.500 353.000 C 405.910 353.000 405.685 352.325 405.000 351.500 C 404.315 350.675 404.062 350.000 404.436 350.000 C 404.811 350.000 403.672 347.288 401.905 343.972 C 399.073 338.659 398.842 337.664 399.960 335.575 C 401.071 333.499 401.617 333.316 404.358 334.103 C 406.079 334.596 407.629 335.000 407.802 335.000 C 407.976 335.000 407.882 335.382 407.594 335.849 C 407.305 336.315 407.927 337.617 408.974 338.742 C 410.022 339.867 410.607 341.060 410.273 341.394 C 409.940 341.727 410.192 342.000 410.833 342.000 C 411.475 342.000 411.926 342.338 411.836 342.750 C 411.746 343.163 412.021 344.741 412.447 346.259 C 413.213 348.990 416.476 350.679 419.207 349.760 C 419.918 349.521 421.939 350.131 423.697 351.116 C 426.799 352.853 426.913 352.850 427.503 350.991 C 427.837 349.938 427.652 348.218 427.091 347.169 C 426.529 346.121 426.344 344.990 426.678 344.656 C 427.012 344.322 426.775 343.434 426.151 342.682 C 425.528 341.931 425.303 341.031 425.651 340.682 C 426.000 340.334 425.809 339.475 425.228 338.774 C 424.646 338.073 424.132 337.163 424.085 336.750 C 424.038 336.338 423.967 335.888 423.926 335.750 C 423.885 335.613 423.648 334.395 423.400 333.043 C 423.152 331.692 422.472 330.292 421.889 329.932 C 421.306 329.571 420.862 328.877 420.903 328.388 C 421.046 326.658 419.852 324.000 418.933 324.000 C 418.420 324.000 418.000 323.325 418.000 322.500 C 418.000 321.675 417.100 320.100 416.000 319.000 C 414.900 317.900 414.261 317.000 414.580 317.000 C 414.899 317.000 412.424 314.264 409.080 310.920 C 405.736 307.576 402.986 305.214 402.970 305.670 C 402.953 306.127 402.475 305.703 401.908 304.729 C 401.341 303.755 400.455 303.219 399.939 303.538 C 399.422 303.857 399.000 303.696 399.000 303.180 C 399.000 302.381 394.092 299.813 391.750 299.387 C 391.338 299.311 390.775 299.138 390.500 299.000 C 390.225 298.863 389.550 298.638 389.000 298.500 C 388.450 298.363 387.775 298.138 387.500 298.000 C 387.225 297.863 386.663 297.655 386.250 297.539 C 385.838 297.422 384.825 297.066 384.000 296.748 C 383.175 296.429 381.600 296.104 380.500 296.026 C 379.400 295.948 377.150 295.782 375.500 295.658 C 370.684 295.295 368.790 293.726 369.168 290.414 C 369.475 287.723 369.883 287.455 374.500 286.907 L 379.500 286.314 374.950 286.157 C 372.448 286.071 369.860 286.540 369.200 287.200 M 369.381 314.192 C 369.107 314.636 369.385 315.000 370.000 315.000 C 370.615 315.000 370.827 315.472 370.470 316.048 C 370.114 316.624 370.161 317.862 370.575 318.798 C 370.989 319.734 371.422 320.838 371.539 321.250 C 371.655 321.663 371.841 322.113 371.952 322.250 C 372.062 322.388 372.319 323.392 372.522 324.482 C 372.725 325.572 373.366 326.622 373.946 326.815 C 374.525 327.008 375.000 327.567 375.000 328.057 C 375.000 329.266 383.807 338.000 385.026 338.000 C 385.562 338.000 386.000 338.395 386.000 338.879 C 386.000 339.787 391.389 342.353 392.595 342.018 C 393.644 341.727 394.968 344.263 394.985 346.595 C 394.993 347.747 394.182 349.430 393.183 350.334 C 391.488 351.869 391.004 351.796 385.933 349.239 C 382.945 347.733 380.350 346.163 380.167 345.750 C 379.983 345.338 379.485 345.000 379.060 345.000 C 378.000 345.000 368.000 334.924 368.000 333.857 C 368.000 333.386 367.649 333.000 367.219 333.000 C 366.579 333.000 364.521 329.001 363.488 325.750 C 363.357 325.338 363.159 324.888 363.048 324.750 C 362.938 324.613 362.704 323.825 362.529 323.000 C 362.354 322.175 362.110 321.050 361.987 320.500 C 361.864 319.950 361.816 318.019 361.882 316.209 C 361.996 313.024 362.125 312.926 365.940 313.151 C 368.108 313.279 369.656 313.748 369.381 314.192 M 349.500 315.000 C 349.160 315.550 349.258 316.000 349.718 316.000 C 350.178 316.000 350.481 318.813 350.392 322.250 C 350.291 326.152 350.759 329.345 351.638 330.750 C 352.413 331.988 352.780 333.000 352.455 333.000 C 351.238 333.000 356.379 339.262 358.899 340.849 C 362.448 343.084 362.730 347.779 359.366 348.623 C 358.067 348.949 356.216 348.869 355.252 348.444 C 354.289 348.020 353.275 347.627 353.000 347.571 C 351.978 347.364 347.000 341.874 347.000 340.955 C 347.000 340.430 346.599 340.000 346.108 340.000 C 345.618 340.000 344.939 338.895 344.600 337.544 C 344.261 336.193 343.479 333.831 342.861 332.294 C 341.340 328.512 341.069 325.467 341.699 319.250 L 342.230 314.000 346.174 314.000 C 348.549 314.000 349.872 314.398 349.500 315.000 M 356.930 355.936 C 357.814 356.495 358.525 359.113 358.790 362.779 C 359.166 367.969 358.935 368.983 356.959 370.824 C 355.715 371.983 354.203 372.616 353.599 372.231 C 352.994 371.846 352.050 371.524 351.500 371.515 C 350.947 371.507 350.419 368.368 350.320 364.500 C 350.180 359.074 350.504 357.219 351.761 356.250 C 353.671 354.778 354.975 354.698 356.930 355.936 M 377.686 357.174 C 379.459 358.840 380.000 360.432 380.000 363.983 C 380.000 370.800 375.893 374.749 372.594 371.104 C 370.391 368.669 370.431 359.286 372.655 356.829 C 374.736 354.529 374.881 354.539 377.686 357.174 "/></g>
<g fill="#5CB2FFFF" stroke="#5CB2FFFF">
<path d="M 630.000 314.690 C 628.625 314.920 624.712 316.013 621.303 317.118 C 616.473 318.684 614.650 318.883 613.034 318.018 C 609.912 316.348 605.158 319.376 605.782 322.638 C 606.128 324.448 605.152 326.200 601.800 329.783 C 592.411 339.820 588.545 349.904 588.678 364.000 C 588.821 378.997 593.679 389.936 604.648 399.961 C 624.221 417.850 654.327 416.867 672.694 397.740 C 684.929 384.999 689.438 368.965 685.492 352.231 C 683.295 342.913 679.487 336.278 672.110 328.917 C 660.674 317.508 644.941 312.192 630.000 314.690 M 632.027 334.700 C 633.387 335.635 635.101 337.228 635.835 338.240 C 637.096 339.978 637.385 339.885 641.088 336.540 C 643.689 334.189 645.987 333.000 647.926 333.000 C 651.515 333.000 656.427 336.958 658.940 341.876 C 659.958 343.869 662.399 347.886 664.363 350.802 C 670.576 360.025 671.665 368.911 667.634 377.500 C 664.603 383.957 660.824 387.671 654.000 390.899 C 649.114 393.210 647.272 393.500 637.500 393.500 C 624.381 393.499 618.468 391.401 612.090 384.482 C 608.135 380.191 605.000 372.462 605.000 367.000 C 605.000 362.722 607.871 354.311 610.359 351.297 C 611.630 349.759 613.961 346.100 615.539 343.167 C 620.570 333.816 626.393 330.826 632.027 334.700 "/></g>
<g fill="#5CB2FFFF" stroke="#5CB2FFFF">
<path d="M 356.000 497.977 C 353.525 498.448 349.490 499.561 347.034 500.449 C 343.524 501.718 341.992 501.825 339.876 500.949 C 336.117 499.391 332.079 501.964 332.753 505.488 C 333.113 507.372 332.038 509.258 328.063 513.716 C 310.326 533.608 311.257 563.239 330.199 581.689 C 350.004 600.980 380.717 600.503 399.821 580.608 C 406.603 573.545 410.376 566.745 412.492 557.769 C 418.252 533.339 404.382 508.217 380.621 500.042 C 373.908 497.732 362.369 496.764 356.000 497.977 M 360.747 519.407 L 364.464 522.813 368.235 519.407 C 373.439 514.705 377.084 514.804 381.868 519.775 C 383.865 521.851 386.850 525.955 388.500 528.895 C 390.150 531.835 392.567 536.024 393.872 538.205 C 395.428 540.806 396.418 544.337 396.749 548.467 C 397.176 553.778 396.853 555.642 394.686 560.376 C 391.702 566.893 388.459 570.194 381.500 573.798 C 377.342 575.952 374.816 576.455 366.500 576.787 C 357.986 577.126 355.626 576.856 350.619 574.972 C 336.317 569.589 329.368 556.567 333.398 542.703 C 334.289 539.640 336.064 535.866 337.343 534.317 C 338.623 532.767 340.961 529.100 342.539 526.167 C 348.225 515.598 354.179 513.388 360.747 519.407 "/></g>
<g fill="#F7C700FF" stroke="#F7C700FF">
<path d="M 627.500 498.428 C 624.200 499.190 620.180 500.326 618.566 500.952 C 616.383 501.799 614.935 501.801 612.908 500.962 C 609.116 499.391 605.076 501.947 605.753 505.488 C 606.112 507.364 605.066 509.228 601.255 513.504 C 583.350 533.592 584.194 563.177 603.199 581.689 C 615.507 593.677 632.310 598.372 648.907 594.460 C 673.739 588.607 690.386 563.722 686.186 538.736 C 683.211 521.039 670.397 505.814 653.621 500.042 C 645.872 497.376 634.973 496.702 627.500 498.428 M 633.747 519.407 L 637.464 522.813 641.235 519.407 C 646.439 514.705 650.084 514.804 654.868 519.775 C 656.865 521.851 659.850 525.955 661.500 528.895 C 663.150 531.835 665.623 536.098 666.996 538.370 C 669.068 541.797 669.493 543.776 669.496 550.000 C 669.502 561.495 665.279 568.237 654.628 573.739 C 650.333 575.958 647.876 576.452 639.500 576.787 C 630.986 577.126 628.626 576.856 623.619 574.972 C 605.862 568.288 600.005 550.338 610.413 534.500 C 612.221 531.750 614.892 527.395 616.349 524.823 C 621.693 515.390 627.419 513.607 633.747 519.407 "/></g>
<g fill="#000000FF" stroke="#000000FF">
<path d="M 624.500 333.954 C 621.678 335.121 618.563 338.758 615.895 344.000 C 614.636 346.475 612.400 350.075 610.926 352.000 C 603.262 362.014 604.314 375.357 613.498 384.597 C 620.055 391.195 626.275 393.408 638.000 393.316 C 657.271 393.165 668.923 383.252 668.978 366.962 C 669.002 359.953 668.428 358.513 660.344 345.296 C 652.542 332.540 647.990 330.675 641.094 337.408 L 637.263 341.149 635.232 338.567 C 633.442 336.292 628.380 332.912 627.000 333.070 C 626.725 333.101 625.600 333.499 624.500 333.954 M 656.516 355.250 C 661.360 362.717 662.071 368.157 659.026 374.446 C 655.809 381.092 650.072 384.211 639.990 384.794 C 629.915 385.378 623.433 383.329 618.670 378.057 C 612.846 371.610 612.858 362.618 618.700 355.607 C 620.026 354.017 622.218 350.529 623.572 347.857 C 625.975 343.115 628.193 341.736 629.372 344.250 C 634.385 354.948 638.348 356.617 642.576 349.811 C 644.049 347.440 645.961 344.692 646.824 343.704 C 648.308 342.006 648.514 342.116 650.590 345.704 C 651.799 347.792 654.465 352.087 656.516 355.250 "/></g>
<g fill="#000000FF" stroke="#000000FF">
<path d="M 347.777 519.750 C 346.348 521.263 344.150 524.525 342.892 527.000 C 341.634 529.475 339.400 533.075 337.926 535.000 C 330.743 544.385 331.274 558.003 339.157 566.555 C 346.624 574.656 358.515 578.199 371.203 576.104 C 383.026 574.151 391.184 568.323 394.595 559.391 C 396.759 553.724 396.121 542.492 393.389 538.177 C 392.350 536.535 389.772 532.336 387.661 528.846 C 382.013 519.510 379.332 517.000 375.009 517.000 C 372.187 517.000 370.645 517.771 367.994 520.506 L 364.596 524.012 361.006 520.506 C 356.355 515.964 351.609 515.693 347.777 519.750 M 356.677 528.402 C 357.680 529.722 359.267 532.197 360.203 533.902 C 362.962 538.918 366.196 538.161 370.457 531.500 C 372.392 528.475 374.452 526.000 375.034 526.000 C 375.617 526.000 376.860 527.398 377.797 529.106 C 378.733 530.814 381.255 534.875 383.399 538.129 C 388.440 545.779 389.142 551.544 385.815 557.979 C 382.458 564.473 375.348 568.002 365.636 567.994 C 356.217 567.987 351.684 566.612 346.939 562.326 C 339.933 555.997 339.402 548.001 345.407 539.271 C 347.244 536.601 349.713 532.522 350.894 530.208 C 353.372 525.351 354.173 525.101 356.677 528.402 "/></g>
<g fill="#000000FF" stroke="#000000FF">
<path d="M 620.797 519.750 C 619.380 521.263 617.209 524.516 615.972 526.980 C 614.736 529.444 612.474 533.044 610.946 534.980 C 605.991 541.256 604.679 550.767 607.590 559.310 C 609.636 565.316 617.136 572.203 624.280 574.638 C 630.371 576.715 643.331 576.984 649.663 575.165 C 661.488 571.769 669.000 562.032 669.000 550.098 C 669.000 542.996 668.414 541.499 660.661 528.792 C 654.980 519.482 652.317 517.000 648.009 517.000 C 645.187 517.000 643.645 517.771 640.994 520.506 L 637.596 524.012 634.006 520.506 C 629.353 515.963 624.601 515.691 620.797 519.750 M 629.677 528.402 C 630.680 529.722 632.267 532.197 633.203 533.902 C 635.962 538.918 639.196 538.161 643.457 531.500 C 645.392 528.475 647.452 526.000 648.034 526.000 C 648.617 526.000 649.860 527.398 650.797 529.106 C 651.733 530.814 654.255 534.875 656.399 538.129 C 661.440 545.779 662.142 551.544 658.815 557.979 C 655.458 564.473 648.348 568.002 638.636 567.994 C 629.217 567.987 624.684 566.612 619.939 562.326 C 612.933 555.997 612.402 548.001 618.407 539.271 C 620.244 536.601 622.713 532.522 623.894 530.208 C 626.372 525.351 627.173 525.101 629.677 528.402 "/></g>
<g fill="#000000FF" stroke="#000000FF">
<path d="M 354.763 488.969 C 342.055 491.281 336.695 494.692 339.000 499.000 C 340.331 501.487 341.869 501.485 349.839 498.987 C 358.330 496.326 370.603 496.325 379.217 498.985 C 397.352 504.587 411.146 520.745 414.054 539.791 C 418.895 571.505 389.505 600.895 357.791 596.054 C 321.742 590.551 303.093 549.661 322.843 519.428 C 324.973 516.168 327.904 512.409 329.358 511.076 C 333.331 507.430 332.454 502.000 327.893 502.000 C 325.737 502.000 317.686 510.891 313.870 517.485 C 303.717 535.030 303.979 558.940 314.517 576.500 C 330.116 602.494 363.317 612.211 390.781 598.818 C 399.996 594.325 412.325 581.996 416.818 572.781 C 432.543 540.534 415.959 501.412 382.135 490.961 C 374.762 488.683 361.600 487.725 354.763 488.969 "/></g>
<g fill="#000000FF" stroke="#000000FF">
<path d="M 627.763 488.969 C 615.055 491.281 609.695 494.692 612.000 499.000 C 613.331 501.487 614.869 501.485 622.839 498.987 C 630.723 496.516 643.435 496.347 651.068 498.612 C 669.998 504.228 683.918 520.061 687.088 539.582 C 692.208 571.115 662.519 600.897 630.791 596.054 C 594.742 590.551 576.093 549.661 595.843 519.428 C 597.973 516.168 600.904 512.409 602.358 511.076 C 606.331 507.430 605.454 502.000 600.893 502.000 C 598.737 502.000 590.686 510.891 586.870 517.485 C 579.675 529.918 577.357 548.964 581.390 562.500 C 591.857 597.632 630.911 614.847 663.781 598.818 C 672.996 594.325 685.325 581.996 689.818 572.781 C 696.085 559.929 697.593 542.603 693.565 529.703 C 687.927 511.646 672.881 496.481 655.135 490.971 C 647.773 488.685 634.614 487.722 627.763 488.969 "/></g>
<g fill="#000000FF" stroke="#000000FF">
<path d="M 627.075 306.087 C 614.620 308.531 609.725 311.749 612.000 316.000 C 613.339 318.502 614.880 318.489 623.000 315.908 C 651.664 306.794 682.145 326.139 687.088 356.582 C 691.307 382.567 671.544 408.794 644.566 413.013 C 621.245 416.660 597.106 401.271 589.985 378.217 C 587.329 369.617 587.329 357.383 589.985 348.783 C 592.097 341.947 597.991 332.082 602.358 328.076 C 606.023 324.713 605.990 320.286 602.291 319.358 C 599.910 318.761 598.959 319.365 594.420 324.360 C 584.199 335.606 579.602 347.750 579.602 363.500 C 579.602 380.413 584.630 392.610 596.541 404.595 C 619.693 427.889 655.809 427.682 679.007 404.124 C 693.396 389.512 698.818 370.956 694.563 350.885 C 688.247 321.088 656.848 300.246 627.075 306.087 "/></g>
<g fill="#F7C700FF" stroke="#F7C700FF">
<path d="M 332.500 424.379 C 324.701 428.058 316.417 434.770 310.977 441.817 C 308.240 445.363 306.000 448.654 306.000 449.132 C 306.000 449.613 332.328 450.000 365.048 450.000 L 424.096 450.000 420.858 445.250 C 415.660 437.625 406.983 429.764 399.322 425.739 C 395.409 423.682 391.707 422.000 391.095 422.000 C 390.483 422.000 388.113 423.354 385.828 425.010 C 380.310 429.007 373.206 431.000 364.477 431.000 C 355.784 431.000 349.743 429.295 343.699 425.137 C 341.191 423.411 338.771 422.004 338.320 422.010 C 337.869 422.015 335.250 423.081 332.500 424.379 "/></g>
<g fill="#FFFFFFFF" stroke="#FFFFFFFF">
<path d="M 623.314 531.250 C 621.818 534.138 620.573 536.812 620.547 537.193 C 620.521 537.574 619.488 538.829 618.250 539.982 C 617.013 541.135 615.944 542.510 615.875 543.039 C 615.618 545.019 615.448 545.533 614.632 546.821 C 613.587 548.469 614.785 557.000 616.061 557.000 C 616.578 557.000 616.907 557.338 616.793 557.750 C 616.501 558.807 622.424 564.843 624.107 565.202 C 624.873 565.366 625.794 565.906 626.153 566.403 C 627.326 568.023 645.024 568.017 648.906 566.395 C 650.844 565.585 652.671 564.602 652.965 564.211 C 653.259 563.820 654.400 562.979 655.500 562.343 C 656.600 561.707 657.388 560.694 657.250 560.093 C 657.113 559.492 657.406 559.000 657.902 559.000 C 660.012 559.000 662.092 547.426 660.304 545.638 C 659.922 545.255 659.496 544.176 659.359 543.239 C 659.221 542.303 658.634 541.378 658.054 541.185 C 657.475 540.992 657.000 540.221 657.000 539.473 C 657.000 538.725 656.160 537.525 655.134 536.807 C 654.108 536.088 653.203 535.050 653.122 534.500 C 652.748 531.944 651.777 530.000 650.874 530.000 C 650.328 530.000 650.146 529.573 650.469 529.050 C 650.792 528.528 650.212 527.649 649.181 527.097 C 647.143 526.006 645.000 527.340 645.000 529.700 C 645.000 530.415 644.652 531.000 644.227 531.000 C 643.802 531.000 642.650 532.495 641.665 534.323 C 640.445 536.590 639.181 537.622 637.688 537.573 C 635.518 537.501 632.000 534.143 632.000 532.144 C 632.000 531.003 627.645 526.000 626.652 526.000 C 626.312 526.000 624.810 528.363 623.314 531.250 "/></g>
<g fill="#FFFFFFFF" stroke="#FFFFFFFF">
<path d="M 350.280 531.250 C 348.766 534.138 347.198 537.288 346.796 538.250 C 346.394 539.213 345.652 540.000 345.149 540.000 C 344.385 540.000 343.730 541.295 342.619 545.000 C 342.537 545.275 342.092 546.094 341.632 546.821 C 339.843 549.642 341.965 556.550 345.923 560.795 C 348.040 563.066 350.387 565.054 351.137 565.212 C 351.886 565.370 352.794 565.906 353.153 566.403 C 354.326 568.023 372.024 568.017 375.906 566.395 C 377.844 565.585 379.671 564.602 379.965 564.211 C 380.259 563.820 381.322 563.050 382.327 562.500 C 383.332 561.950 384.104 561.146 384.042 560.714 C 383.979 560.282 384.624 559.233 385.473 558.384 C 386.323 557.534 386.782 556.456 386.493 555.988 C 386.204 555.521 386.425 554.856 386.984 554.510 C 388.125 553.805 388.381 546.715 387.304 545.638 C 386.922 545.255 386.496 544.176 386.359 543.239 C 386.221 542.303 385.634 541.378 385.054 541.185 C 384.475 540.992 384.000 540.221 384.000 539.473 C 384.000 538.725 383.103 537.485 382.006 536.717 C 380.910 535.949 380.310 535.023 380.673 534.660 C 381.036 534.297 380.782 534.000 380.108 534.000 C 379.434 534.000 379.138 533.586 379.450 533.081 C 379.763 532.575 379.323 531.466 378.473 530.616 C 377.624 529.767 377.057 528.718 377.214 528.286 C 377.371 527.854 376.455 527.352 375.177 527.171 C 373.507 526.934 372.701 527.426 372.310 528.921 C 372.011 530.064 371.472 531.000 371.111 531.000 C 370.750 531.000 369.650 532.495 368.665 534.323 C 367.445 536.590 366.181 537.622 364.688 537.573 C 362.518 537.501 359.000 534.143 359.000 532.144 C 359.000 531.003 354.645 526.000 353.652 526.000 C 353.312 526.000 351.795 528.363 350.280 531.250 "/></g>
<g fill="#FFFFFFFF" stroke="#FFFFFFFF">
<path d="M 623.075 348.678 C 621.384 351.800 620.000 354.709 620.000 355.142 C 620.000 355.575 619.061 356.432 617.914 357.046 C 616.767 357.660 616.088 358.422 616.406 358.739 C 616.723 359.056 616.481 359.920 615.869 360.658 C 615.256 361.396 615.090 362.000 615.500 362.000 C 615.910 362.000 615.688 362.671 615.008 363.491 C 613.604 365.182 614.489 374.000 616.061 374.000 C 616.578 374.000 616.895 374.338 616.766 374.750 C 616.461 375.728 622.272 381.539 623.250 381.234 C 623.663 381.105 624.000 381.477 624.000 382.059 C 624.000 382.641 624.419 382.859 624.931 382.543 C 625.443 382.226 626.149 382.432 626.500 383.000 C 626.851 383.568 627.526 383.793 628.000 383.500 C 628.474 383.207 629.130 383.401 629.457 383.931 C 630.297 385.290 646.918 384.516 650.250 382.962 C 651.763 382.256 653.000 381.301 653.000 380.839 C 653.000 380.378 653.689 380.000 654.531 380.000 C 655.374 380.000 656.361 379.213 656.725 378.250 C 657.090 377.288 657.980 375.901 658.703 375.169 C 659.427 374.438 659.782 373.456 659.493 372.988 C 659.204 372.521 659.425 371.856 659.984 371.510 C 661.125 370.805 661.381 363.715 660.304 362.638 C 659.922 362.255 659.496 361.176 659.359 360.239 C 659.221 359.303 658.634 358.378 658.054 358.185 C 657.475 357.992 657.000 357.221 657.000 356.473 C 657.000 355.725 656.000 354.413 654.777 353.557 C 653.555 352.701 652.889 352.000 653.298 352.000 C 653.706 352.000 653.122 350.200 652.000 348.000 C 649.732 343.554 646.204 342.503 645.290 346.000 C 645.002 347.100 644.472 348.000 644.111 348.000 C 643.750 348.000 642.635 349.522 641.634 351.382 C 640.212 354.021 639.339 354.649 637.656 354.241 C 635.055 353.610 631.875 351.011 632.489 350.018 C 632.732 349.625 631.934 348.231 630.715 346.921 C 629.497 345.611 628.613 344.192 628.750 343.769 C 628.888 343.346 628.359 343.000 627.575 343.000 C 626.791 343.000 624.766 345.555 623.075 348.678 "/></g>
<g fill="#FFFFFFFF" stroke="#FFFFFFFF">
<path d="M 304.015 388.685 C 304.007 389.337 304.520 391.137 305.156 392.685 C 305.792 394.233 306.398 395.950 306.504 396.500 C 306.609 397.050 306.801 397.725 306.931 398.000 C 308.327 400.961 308.478 415.697 307.148 419.147 C 306.587 420.603 306.399 422.066 306.731 422.397 C 307.062 422.729 306.782 423.000 306.108 423.000 C 305.434 423.000 305.160 423.450 305.500 424.000 C 305.840 424.550 305.641 425.000 305.059 425.000 C 304.477 425.000 304.000 425.567 304.000 426.259 C 304.000 426.952 303.100 428.081 302.000 428.768 C 299.304 430.452 299.483 431.653 302.545 432.422 C 304.374 432.881 304.867 433.462 304.295 434.487 C 303.858 435.271 306.350 433.007 309.833 429.456 C 313.316 425.905 316.593 423.000 317.114 423.000 C 317.636 423.000 318.321 422.328 318.636 421.506 C 318.952 420.684 319.544 420.218 319.953 420.471 C 320.362 420.724 321.617 420.073 322.742 419.026 C 323.867 417.978 325.060 417.393 325.394 417.727 C 325.727 418.060 326.000 417.782 326.000 417.108 C 326.000 416.434 326.450 416.160 327.000 416.500 C 327.550 416.840 328.000 416.641 328.000 416.059 C 328.000 415.477 328.338 415.092 328.750 415.205 C 329.538 415.420 336.785 413.154 338.499 412.156 C 339.048 411.836 340.173 411.558 340.999 411.537 C 342.549 411.499 343.333 407.102 341.829 406.875 C 340.007 406.600 339.332 406.322 335.000 404.057 C 332.525 402.763 330.396 401.883 330.269 402.102 C 330.142 402.321 329.324 401.480 328.451 400.233 C 327.578 398.987 326.480 398.203 326.012 398.493 C 325.543 398.782 324.273 397.891 323.188 396.512 C 322.028 395.037 320.245 394.034 318.858 394.076 C 315.728 394.171 314.130 393.724 310.260 391.675 C 308.479 390.732 306.729 390.007 306.372 390.065 C 306.016 390.123 305.343 389.570 304.877 388.835 C 304.307 387.935 304.026 387.886 304.015 388.685 "/></g>
<g fill="#FFFFFFFF" stroke="#FFFFFFFF">
<path d="M 421.000 391.059 C 421.000 391.641 420.550 391.840 420.000 391.500 C 419.450 391.160 419.000 391.434 419.000 392.108 C 419.000 392.782 418.729 393.062 418.397 392.731 C 418.066 392.399 416.603 392.610 415.147 393.200 C 413.691 393.789 411.280 394.205 409.789 394.123 C 407.842 394.016 406.460 394.811 404.880 396.948 C 403.671 398.583 402.300 399.686 401.834 399.397 C 401.367 399.109 400.716 399.577 400.386 400.437 C 400.056 401.296 399.159 402.000 398.393 402.000 C 397.627 402.000 397.000 402.477 397.000 403.059 C 397.000 403.641 396.550 403.840 396.000 403.500 C 395.450 403.160 395.000 403.385 395.000 404.000 C 395.000 404.615 394.550 404.840 394.000 404.500 C 393.450 404.160 393.000 404.434 393.000 405.108 C 393.000 405.782 392.737 406.070 392.415 405.748 C 392.093 405.427 390.518 405.621 388.915 406.179 C 386.758 406.931 386.000 407.837 386.000 409.661 C 386.000 411.425 386.497 412.063 387.750 411.907 C 388.713 411.786 390.850 412.242 392.500 412.920 C 394.150 413.597 396.288 414.214 397.250 414.289 C 398.213 414.364 399.000 414.744 399.000 415.133 C 399.000 415.523 400.350 416.138 402.000 416.500 C 403.650 416.862 405.000 417.600 405.000 418.138 C 405.000 418.677 405.450 418.840 406.000 418.500 C 406.550 418.160 407.000 418.359 407.000 418.941 C 407.000 419.523 407.627 420.000 408.393 420.000 C 409.159 420.000 410.070 420.739 410.417 421.643 C 410.763 422.547 411.317 423.016 411.648 422.686 C 411.978 422.355 412.980 422.983 413.874 424.081 C 414.768 425.179 416.625 426.636 418.000 427.318 C 419.375 428.000 421.047 429.699 421.715 431.093 C 422.384 432.487 423.951 434.498 425.198 435.563 C 427.049 437.144 427.213 437.174 426.090 435.726 C 424.374 433.512 425.006 432.853 429.195 432.489 L 432.500 432.202 429.856 431.166 C 425.317 429.388 419.437 415.394 420.407 408.679 C 421.558 400.714 421.815 399.486 422.933 396.611 C 423.551 395.023 423.822 393.489 423.537 393.203 C 423.251 392.918 423.519 392.080 424.131 391.342 C 425.003 390.291 424.785 390.000 423.122 390.000 C 421.955 390.000 421.000 390.477 421.000 391.059 "/></g>
<g fill="#CDCDCDFF" stroke="#CDCDCDFF">
<path d="M 751.000 688.552 C 751.000 688.855 752.013 690.877 753.250 693.044 L 755.500 696.985 763.679 696.992 C 769.773 696.998 772.258 697.401 773.429 698.571 C 777.068 702.210 774.063 706.228 767.152 706.962 L 762.088 707.500 765.142 712.776 L 768.195 718.052 782.625 717.776 L 797.055 717.500 786.778 702.765 L 776.500 688.030 763.750 688.015 C 756.738 688.007 751.000 688.248 751.000 688.552 "/></g>
<g fill="#CDCDCDFF" stroke="#CDCDCDFF">
<path d="M 215.222 702.765 L 204.945 717.500 219.375 717.776 L 233.805 718.052 236.858 712.776 L 239.911 707.500 234.206 706.996 C 231.068 706.719 227.992 706.163 227.371 705.762 C 225.483 704.541 225.137 701.249 226.667 699.065 C 227.949 697.234 229.156 696.999 237.307 696.992 L 246.500 696.985 248.750 693.044 C 249.988 690.877 251.000 688.855 251.000 688.552 C 251.000 688.248 245.263 688.007 238.250 688.015 L 225.500 688.030 215.222 702.765 "/></g>
<g fill="#CDCDCDFF" stroke="#CDCDCDFF">
<path d="M 635.250 276.748 L 769.000 277.007 769.249 455.004 L 769.497 633.000 769.499 454.750 L 769.500 276.500 635.500 276.495 L 501.500 276.489 635.250 276.748 "/></g>
<g fill="#FFFFFFFF" stroke="#FFFFFFFF">
<path d="M 201.805 672.250 L 198.443 676.500 201.972 672.749 L 205.500 668.999 501.000 668.999 L 796.500 668.999 800.028 672.749 L 803.557 676.500 800.195 672.250 L 796.834 668.000 501.000 668.000 L 205.166 668.000 201.805 672.250 "/></g>
<g fill="#FFFFFFFF" stroke="#FFFFFFFF">
<path d="M 225.345 642.235 C 226.623 643.048 774.041 643.304 776.168 642.492 C 776.901 642.213 653.005 641.875 500.845 641.742 C 348.686 641.609 224.711 641.831 225.345 642.235 "/></g>
<g fill="#000000FF" stroke="#000000FF">
<path d="M 362.667 313.667 C 361.361 314.973 362.032 321.011 364.097 326.530 C 366.949 334.154 376.010 343.751 384.511 348.154 C 391.674 351.863 394.234 351.512 394.808 346.739 C 395.075 344.517 394.308 343.749 389.005 340.922 C 380.679 336.484 373.571 328.550 371.347 321.212 C 370.395 318.071 369.197 314.938 368.686 314.250 C 367.699 312.925 363.788 312.546 362.667 313.667 "/></g>
<g fill="#000000FF" stroke="#000000FF">
<path d="M 342.249 315.750 C 340.969 319.009 341.590 328.472 343.444 333.942 C 344.701 337.652 346.818 340.913 350.096 344.192 C 355.389 349.484 359.154 350.449 361.007 346.987 C 362.287 344.595 361.565 343.137 357.363 339.630 C 352.922 335.925 350.000 329.162 350.000 322.593 C 350.000 319.607 349.727 316.452 349.393 315.582 C 348.543 313.367 343.136 313.495 342.249 315.750 "/></g>
<g fill="#CDCDCDFF" stroke="#CDCDCDFF">
<path d="M 616.440 709.617 C 616.801 711.056 617.356 713.531 617.673 715.117 L 618.250 718.000 632.732 718.000 C 644.714 718.000 647.122 717.759 646.678 716.604 C 646.384 715.836 645.589 713.361 644.913 711.104 L 643.683 707.000 629.733 707.000 L 615.783 707.000 616.440 709.617 "/></g>
<g fill="#CDCDCDFF" stroke="#CDCDCDFF">
<path d="M 357.087 711.104 C 356.411 713.361 355.616 715.836 355.322 716.604 C 354.878 717.759 357.286 718.000 369.268 718.000 L 383.750 718.000 384.327 715.117 C 384.644 713.531 385.199 711.056 385.560 709.617 L 386.217 707.000 372.267 707.000 L 358.317 707.000 357.087 711.104 "/></g>
<g fill="#CDCDCDFF" stroke="#CDCDCDFF">
<path d="M 542.370 709.250 C 542.701 710.488 542.979 712.963 542.986 714.750 L 543.000 718.000 557.131 718.000 L 571.262 718.000 570.642 714.250 C 570.301 712.188 570.017 709.713 570.011 708.750 C 570.001 707.166 568.657 707.000 555.883 707.000 L 541.767 707.000 542.370 709.250 "/></g>
<g fill="#CDCDCDFF" stroke="#CDCDCDFF">
<path d="M 431.989 708.750 C 431.983 709.713 431.699 712.188 431.358 714.250 L 430.738 718.000 444.869 718.000 L 459.000 718.000 459.014 714.750 C 459.021 712.963 459.299 710.488 459.630 709.250 L 460.233 707.000 446.117 707.000 C 433.343 707.000 431.999 707.166 431.989 708.750 "/></g>
<g fill="#CDCDCDFF" stroke="#CDCDCDFF">
<path d="M 506.000 712.500 L 506.000 718.000 519.500 718.000 L 533.000 718.000 533.000 712.500 L 533.000 707.000 519.500 707.000 L 506.000 707.000 506.000 712.500 "/></g>
<g fill="#CDCDCDFF" stroke="#CDCDCDFF">
<path d="M 469.000 712.500 L 469.000 718.000 482.500 718.000 L 496.000 718.000 496.000 712.500 L 496.000 707.000 482.500 707.000 L 469.000 707.000 469.000 712.500 "/></g>
<g fill="#CDCDCDFF" stroke="#CDCDCDFF">
<path d="M 580.000 709.375 C 580.000 710.681 580.281 713.156 580.625 714.875 L 581.250 718.000 594.625 718.000 C 603.357 718.000 608.000 717.633 608.000 716.943 C 608.000 716.361 607.497 713.886 606.881 711.443 L 605.763 707.000 592.881 707.000 L 580.000 707.000 580.000 709.375 "/></g>
<g fill="#CDCDCDFF" stroke="#CDCDCDFF">
<path d="M 395.119 711.443 C 394.503 713.886 394.000 716.361 394.000 716.943 C 394.000 717.633 398.643 718.000 407.375 718.000 L 420.750 718.000 421.375 714.875 C 421.719 713.156 422.000 710.681 422.000 709.375 L 422.000 707.000 409.119 707.000 L 396.237 707.000 395.119 711.443 "/></g>
<g fill="#FFFFFFFF" stroke="#FFFFFFFF">
<path d="M 351.000 413.816 C 351.000 419.042 351.415 419.713 355.246 420.685 C 358.786 421.583 370.340 422.013 372.000 421.309 C 372.825 420.959 373.725 420.595 374.000 420.500 C 377.601 419.256 378.000 418.584 378.000 413.768 L 378.000 408.750 374.750 409.586 C 372.963 410.045 368.350 410.421 364.500 410.421 C 360.650 410.421 356.038 410.045 354.250 409.586 L 351.000 408.750 351.000 413.816 "/></g>
<g fill="#CDCDCDFF" stroke="#CDCDCDFF">
<path d="M 654.322 708.396 C 654.616 709.164 655.414 711.651 656.095 713.923 L 657.333 718.054 670.529 717.777 L 683.725 717.500 681.728 712.250 L 679.732 707.000 666.759 707.000 C 656.068 707.000 653.880 707.246 654.322 708.396 "/></g>
<g fill="#CDCDCDFF" stroke="#CDCDCDFF">
<path d="M 320.272 712.250 L 318.275 717.500 331.471 717.777 L 344.667 718.054 345.905 713.923 C 346.586 711.651 347.384 709.164 347.678 708.396 C 348.120 707.246 345.932 707.000 335.241 707.000 L 322.268 707.000 320.272 712.250 "/></g>
<g fill="#CDCDCDFF" stroke="#CDCDCDFF">
<path d="M 692.015 712.037 C 693.107 714.807 694.000 717.282 694.000 717.537 C 694.000 717.792 699.850 718.000 707.000 718.000 C 714.150 718.000 720.000 717.760 720.000 717.467 C 720.000 717.173 718.867 714.698 717.483 711.967 L 714.966 707.000 702.498 707.000 L 690.029 707.000 692.015 712.037 "/></g>
<g fill="#CDCDCDFF" stroke="#CDCDCDFF">
<path d="M 284.532 711.937 C 283.139 714.685 282.000 717.173 282.000 717.467 C 282.000 717.760 287.790 718.000 294.866 718.000 L 307.732 718.000 309.729 712.750 L 311.725 707.500 299.394 707.220 L 287.064 706.941 284.532 711.937 "/></g>
<g fill="#CDCDCDFF" stroke="#CDCDCDFF">
<path d="M 728.733 712.527 L 731.444 718.055 744.144 717.777 L 756.844 717.500 753.681 712.250 L 750.518 707.000 738.270 707.000 L 726.022 707.000 728.733 712.527 "/></g>
<g fill="#CDCDCDFF" stroke="#CDCDCDFF">
<path d="M 248.319 712.250 L 245.156 717.500 257.856 717.777 L 270.556 718.055 273.267 712.527 L 275.978 707.000 263.730 707.000 L 251.482 707.000 248.319 712.250 "/></g>
<g fill="#CDCDCDFF" stroke="#CDCDCDFF">
<path d="M 611.385 689.750 C 611.671 690.713 612.200 692.738 612.561 694.250 L 613.217 697.000 626.676 697.000 L 640.135 697.000 639.434 694.750 C 637.166 687.470 638.381 688.000 623.957 688.000 C 611.957 688.000 610.909 688.146 611.385 689.750 "/></g>
<g fill="#CDCDCDFF" stroke="#CDCDCDFF">
<path d="M 364.109 690.250 C 363.646 691.488 362.952 693.513 362.566 694.750 L 361.865 697.000 375.324 697.000 L 388.783 697.000 389.439 694.250 C 389.800 692.738 390.329 690.713 390.615 689.750 C 391.091 688.146 390.043 688.000 378.043 688.000 C 365.382 688.000 364.923 688.074 364.109 690.250 "/></g>
<g fill="#CDCDCDFF" stroke="#CDCDCDFF">
<path d="M 506.000 692.500 L 506.000 697.000 519.000 697.000 L 532.000 697.000 532.000 692.500 L 532.000 688.000 519.000 688.000 L 506.000 688.000 506.000 692.500 "/></g>
<g fill="#CDCDCDFF" stroke="#CDCDCDFF">
<path d="M 470.000 692.500 L 470.000 697.000 483.000 697.000 L 496.000 697.000 496.000 692.500 L 496.000 688.000 483.000 688.000 L 470.000 688.000 470.000 692.500 "/></g>
<g fill="#CDCDCDFF" stroke="#CDCDCDFF">
<path d="M 542.000 692.500 L 542.000 697.000 555.000 697.000 C 569.099 697.000 568.598 697.238 567.375 691.125 L 566.750 688.000 554.375 688.000 L 542.000 688.000 542.000 692.500 "/></g>
<g fill="#CDCDCDFF" stroke="#CDCDCDFF">
<path d="M 434.625 691.125 C 433.402 697.238 432.901 697.000 447.000 697.000 L 460.000 697.000 460.000 692.500 L 460.000 688.000 447.625 688.000 L 435.250 688.000 434.625 691.125 "/></g>
<g fill="#FFFFFFFF" stroke="#FFFFFFFF">
<path d="M 496.244 369.750 L 496.000 450.000 465.526 450.000 L 435.051 450.000 433.276 446.873 L 431.500 443.745 432.886 447.373 L 434.272 451.000 465.642 451.000 L 497.012 451.000 496.750 370.250 L 496.488 289.500 496.244 369.750 "/></g>
<g fill="#CDCDCDFF" stroke="#CDCDCDFF">
<path d="M 577.000 689.375 C 577.000 690.131 577.281 692.156 577.625 693.875 L 578.250 697.000 590.625 697.000 C 597.431 697.000 602.997 696.663 602.994 696.250 C 602.991 695.838 602.520 693.813 601.947 691.750 L 600.906 688.000 588.953 688.000 C 579.478 688.000 577.000 688.285 577.000 689.375 "/></g>
<g fill="#CDCDCDFF" stroke="#CDCDCDFF">
<path d="M 400.053 691.750 C 399.480 693.813 399.009 695.838 399.006 696.250 C 399.003 696.663 404.569 697.000 411.375 697.000 L 423.750 697.000 424.375 693.875 C 425.592 687.788 426.002 688.000 413.047 688.000 L 401.094 688.000 400.053 691.750 "/></g>
<g fill="#CDCDCDFF" stroke="#CDCDCDFF">
<path d="M 648.000 688.634 C 648.000 688.983 648.521 691.008 649.158 693.134 L 650.317 697.000 662.658 697.000 C 669.446 697.000 675.000 696.784 675.000 696.520 C 675.000 696.256 674.276 694.231 673.391 692.020 L 671.783 688.000 659.891 688.000 C 653.351 688.000 648.000 688.285 648.000 688.634 "/></g>
<g fill="#CDCDCDFF" stroke="#CDCDCDFF">
<path d="M 328.609 692.020 C 327.724 694.231 327.000 696.256 327.000 696.520 C 327.000 696.784 332.554 697.000 339.342 697.000 L 351.683 697.000 352.842 693.134 C 353.479 691.008 354.000 688.983 354.000 688.634 C 354.000 688.285 348.649 688.000 342.109 688.000 L 330.217 688.000 328.609 692.020 "/></g>
<g fill="#CDCDCDFF" stroke="#CDCDCDFF">
<path d="M 683.999 692.250 L 685.900 696.500 697.952 696.781 L 710.004 697.062 707.803 692.531 L 705.601 688.000 693.850 688.000 L 682.098 688.000 683.999 692.250 "/></g>
<g fill="#CDCDCDFF" stroke="#CDCDCDFF">
<path d="M 294.197 692.531 L 291.996 697.062 304.048 696.781 L 316.100 696.500 318.001 692.250 L 319.902 688.000 308.150 688.000 L 296.399 688.000 294.197 692.531 "/></g>
<g fill="#CDCDCDFF" stroke="#CDCDCDFF">
<path d="M 717.000 688.540 C 717.000 688.837 717.909 690.862 719.020 693.040 L 721.041 697.000 732.520 697.000 C 738.834 697.000 744.000 696.766 744.000 696.480 C 744.000 696.194 742.869 694.169 741.487 691.980 L 738.975 688.000 727.987 688.000 C 721.944 688.000 717.000 688.243 717.000 688.540 "/></g>
<g fill="#CDCDCDFF" stroke="#CDCDCDFF">
<path d="M 260.513 691.980 C 259.131 694.169 258.000 696.194 258.000 696.480 C 258.000 696.766 263.166 697.000 269.480 697.000 L 280.959 697.000 282.980 693.040 C 284.091 690.862 285.000 688.837 285.000 688.540 C 285.000 688.243 280.056 688.000 274.013 688.000 L 263.025 688.000 260.513 691.980 "/></g>
<g fill="#FFFFFFFF" stroke="#FFFFFFFF">
<path d="M 309.000 359.059 C 309.000 359.641 308.569 359.852 308.043 359.526 C 307.516 359.201 306.436 360.190 305.642 361.725 C 303.762 365.360 304.303 373.122 306.725 377.269 C 308.464 380.247 314.839 385.494 315.687 384.646 C 315.890 384.443 315.530 382.977 314.887 381.389 C 313.260 377.371 313.031 375.656 312.869 366.250 C 312.743 358.919 312.520 358.000 310.864 358.000 C 309.839 358.000 309.000 358.477 309.000 359.059 "/></g>
<g fill="#FFFFFFFF" stroke="#FFFFFFFF">
<path d="M 416.056 366.750 C 415.921 376.839 415.697 379.064 414.644 380.768 C 414.225 381.445 414.189 382.000 414.563 382.000 C 414.938 382.000 414.627 382.749 413.872 383.664 C 412.616 385.187 412.712 385.216 415.000 384.012 C 417.936 382.466 422.550 377.829 422.225 376.750 C 422.101 376.338 422.477 376.000 423.059 376.000 C 423.641 376.000 423.859 375.581 423.543 375.069 C 423.226 374.557 423.378 373.884 423.880 373.574 C 425.076 372.835 424.673 365.216 423.262 361.886 C 422.181 359.338 420.199 358.000 417.505 358.000 C 416.507 358.000 416.144 360.191 416.056 366.750 "/></g>
<g fill="#000000FF" stroke="#000000FF">
<path d="M 351.035 357.934 C 349.435 360.924 349.766 368.623 351.571 370.429 C 355.198 374.055 359.000 370.950 359.000 364.363 C 359.000 358.626 357.587 356.000 354.500 356.000 C 353.121 356.000 351.623 356.837 351.035 357.934 "/></g>
<g fill="#B99500FF" stroke="#B99500FF">
<path d="M 305.000 450.250 C 305.000 450.663 331.888 450.895 364.750 450.766 L 424.500 450.531 364.750 450.016 C 331.887 449.732 305.000 449.838 305.000 450.250 "/></g>
<g fill="#000000FF" stroke="#000000FF">
<path d="M 372.070 357.416 C 370.231 359.632 371.110 370.048 373.250 371.391 C 376.478 373.417 378.464 370.974 378.802 364.562 C 379.122 358.515 378.005 356.000 375.000 356.000 C 374.035 356.000 372.716 356.637 372.070 357.416 "/></g>
<g fill="#FFFFFFFF" stroke="#FFFFFFFF">
<path d="M 505.202 712.250 L 505.500 718.500 519.500 718.500 L 533.500 718.500 533.450 714.750 C 533.401 711.101 533.395 711.095 533.200 714.500 L 533.000 718.000 519.500 718.000 L 506.000 718.000 506.000 712.528 L 506.000 707.056 519.750 706.748 L 533.500 706.439 519.202 706.219 L 504.905 706.000 505.202 712.250 "/></g>
<g fill="#FFFFFFFF" stroke="#FFFFFFFF">
<path d="M 482.250 706.748 L 496.000 707.056 496.000 712.528 L 496.000 718.000 482.500 718.000 L 469.000 718.000 468.800 714.500 C 468.605 711.095 468.599 711.101 468.550 714.750 L 468.500 718.500 482.500 718.500 L 496.500 718.500 496.798 712.250 L 497.095 706.000 482.798 706.219 L 468.500 706.439 482.250 706.748 "/></g>
<g fill="#FFFFFFFF" stroke="#FFFFFFFF">
<path d="M 505.398 692.500 L 505.500 697.500 519.250 697.778 L 533.000 698.056 532.820 692.778 L 532.640 687.500 532.265 692.250 L 531.890 697.000 519.000 697.000 L 506.110 697.000 505.703 692.250 L 505.296 687.500 505.398 692.500 "/></g>
<g fill="#FFFFFFFF" stroke="#FFFFFFFF">
<path d="M 469.180 692.778 L 469.000 698.056 482.750 697.778 L 496.500 697.500 496.458 692.750 L 496.417 688.000 496.208 692.500 L 496.000 697.000 483.055 697.000 L 470.110 697.000 469.735 692.250 L 469.360 687.500 469.180 692.778 "/></g>
<g fill="#FFFFFFFF" stroke="#FFFFFFFF">
<path d="M 542.402 714.243 L 542.500 718.500 557.250 718.777 L 572.000 719.053 571.884 716.777 C 571.798 715.083 571.651 714.948 571.311 716.250 C 570.903 717.811 569.352 718.000 556.984 718.000 L 543.115 718.000 542.709 713.993 L 542.304 709.985 542.402 714.243 "/></g>
<g fill="#FFFFFFFF" stroke="#FFFFFFFF">
<path d="M 459.205 714.000 L 459.000 718.000 445.073 718.000 C 432.651 718.000 431.097 717.811 430.689 716.250 C 430.349 714.948 430.202 715.083 430.116 716.777 L 430.000 719.053 444.750 718.777 L 459.500 718.500 459.455 714.250 L 459.409 710.000 459.205 714.000 "/></g>
<g fill="#FFFFFFFF" stroke="#FFFFFFFF">
<path d="M 541.398 692.500 L 541.500 697.500 555.250 697.778 L 569.000 698.056 568.884 695.778 C 568.798 694.085 568.651 693.949 568.311 695.250 C 567.905 696.802 566.400 697.000 554.981 697.000 L 542.110 697.000 541.703 692.250 L 541.296 687.500 541.398 692.500 "/></g>
<g fill="#FFFFFFFF" stroke="#FFFFFFFF">
<path d="M 460.208 692.500 L 460.000 697.000 447.073 697.000 C 435.603 697.000 434.095 696.803 433.689 695.250 C 433.349 693.949 433.202 694.085 433.116 695.778 L 433.000 698.056 446.750 697.778 L 460.500 697.500 460.458 692.750 L 460.417 688.000 460.208 692.500 "/></g>
<g fill="#FFFFFFFF" stroke="#FFFFFFFF">
<path d="M 580.336 716.000 L 580.500 718.500 594.750 718.777 L 609.000 719.055 608.884 716.777 C 608.798 715.084 608.651 714.949 608.311 716.250 C 607.904 717.806 606.376 718.000 594.496 718.000 C 581.454 718.000 581.128 717.947 580.656 715.750 C 580.230 713.767 580.192 713.797 580.336 716.000 "/></g>
<g fill="#FFFFFFFF" stroke="#FFFFFFFF">
<path d="M 421.179 716.000 C 421.010 717.892 420.274 718.000 407.573 718.000 C 395.627 718.000 394.096 717.807 393.689 716.250 C 393.349 714.949 393.202 715.084 393.116 716.777 L 393.000 719.055 407.250 718.777 C 421.303 718.504 421.499 718.469 421.429 716.250 C 421.377 714.627 421.307 714.557 421.179 716.000 "/></g>
<g fill="#FFFFFFFF" stroke="#FFFFFFFF">
<path d="M 579.150 709.222 C 579.288 712.247 579.332 712.288 579.716 709.750 L 580.133 707.000 593.066 707.000 C 603.822 707.000 606.028 707.253 606.167 708.500 C 606.258 709.325 606.371 709.213 606.417 708.250 C 606.492 706.677 605.110 706.472 592.750 706.222 L 579.000 705.944 579.150 709.222 "/></g>
<g fill="#FFFFFFFF" stroke="#FFFFFFFF">
<path d="M 395.345 707.543 C 395.019 708.392 395.034 709.367 395.376 709.710 C 395.719 710.053 396.000 709.583 396.000 708.667 C 396.000 707.197 397.529 707.000 408.934 707.000 L 421.867 707.000 422.284 709.750 C 422.671 712.310 422.711 712.275 422.850 709.250 L 423.000 706.000 409.469 706.000 C 398.195 706.000 395.838 706.257 395.345 707.543 "/></g>
<g fill="#FFFFFFFF" stroke="#FFFFFFFF">
<path d="M 796.433 716.891 C 796.999 717.807 793.614 718.058 782.157 717.949 C 773.898 717.871 767.409 718.075 767.737 718.403 C 768.065 718.732 775.008 719.000 783.167 719.000 C 796.896 719.000 800.070 718.398 796.845 716.405 C 796.114 715.953 795.963 716.131 796.433 716.891 "/></g>
<g fill="#FFFFFFFF" stroke="#FFFFFFFF">
<path d="M 204.750 716.639 C 204.338 717.021 204.000 717.708 204.000 718.167 C 204.000 719.104 233.333 719.334 234.263 718.403 C 234.591 718.075 228.135 717.871 219.915 717.949 C 209.712 718.045 205.054 717.750 205.235 717.017 C 205.381 716.427 205.163 716.257 204.750 716.639 "/></g>
<g fill="#FFFFFFFF" stroke="#FFFFFFFF">
<path d="M 612.320 695.500 C 612.513 697.382 613.364 697.516 626.762 697.777 C 634.593 697.930 641.001 697.705 641.002 697.277 C 641.003 696.850 634.740 696.636 627.085 696.802 C 614.390 697.077 613.120 696.945 612.641 695.302 C 612.206 693.813 612.150 693.848 612.320 695.500 "/></g>
<g fill="#FFFFFFFF" stroke="#FFFFFFFF">
<path d="M 389.167 695.553 C 389.023 696.891 387.063 697.064 374.998 696.803 C 367.297 696.636 360.997 696.850 360.998 697.277 C 360.999 697.705 367.413 697.930 375.250 697.777 C 388.087 697.528 389.492 697.326 389.417 695.750 C 389.365 694.656 389.271 694.582 389.167 695.553 "/></g>
<g fill="#FFFFFFFF" stroke="#FFFFFFFF">
<path d="M 577.336 695.000 L 577.500 697.500 590.750 697.779 C 602.914 698.035 603.994 697.912 603.921 696.279 C 603.875 695.232 603.635 695.014 603.338 695.750 C 602.972 696.655 599.428 697.000 590.486 697.000 C 578.492 697.000 578.125 696.936 577.656 694.750 C 577.230 692.767 577.192 692.797 577.336 695.000 "/></g>
<g fill="#FFFFFFFF" stroke="#FFFFFFFF">
<path d="M 424.179 695.000 C 424.010 696.883 423.274 697.000 411.583 697.000 C 402.586 697.000 399.028 696.656 398.662 695.750 C 398.365 695.014 398.125 695.232 398.079 696.279 C 398.006 697.912 399.086 698.035 411.250 697.779 C 424.266 697.505 424.499 697.460 424.429 695.250 C 424.377 693.627 424.307 693.557 424.179 695.000 "/></g>
<g fill="#FFFFFFFF" stroke="#FFFFFFFF">
<path d="M 632.500 718.041 L 617.500 718.582 632.833 718.791 C 641.267 718.906 648.017 718.663 647.833 718.250 C 647.650 717.838 640.750 717.743 632.500 718.041 "/></g>
<g fill="#FFFFFFFF" stroke="#FFFFFFFF">
<path d="M 353.998 718.250 C 353.999 718.663 360.863 718.911 369.250 718.801 L 384.500 718.602 369.248 718.051 C 360.860 717.748 353.997 717.838 353.998 718.250 "/></g>
<g fill="#FFFFFFFF" stroke="#FFFFFFFF">
<path d="M 615.015 707.750 C 615.026 708.964 615.268 709.126 615.806 708.280 C 616.339 707.440 620.941 706.962 630.541 706.749 L 644.500 706.439 629.750 706.219 C 616.280 706.019 615.001 706.152 615.015 707.750 "/></g>
<g fill="#FFFFFFFF" stroke="#FFFFFFFF">
<path d="M 371.459 706.749 C 381.059 706.962 385.661 707.440 386.194 708.280 C 386.732 709.126 386.974 708.964 386.985 707.750 C 386.999 706.152 385.720 706.019 372.250 706.219 L 357.500 706.439 371.459 706.749 "/></g>
<g fill="#FFFFFFFF" stroke="#FFFFFFFF">
<path d="M 674.492 694.720 C 675.110 696.918 674.995 696.942 662.308 697.252 L 649.500 697.565 662.750 697.783 C 676.427 698.007 677.493 697.676 674.919 694.000 C 674.094 692.821 674.002 692.975 674.492 694.720 "/></g>
<g fill="#FFFFFFFF" stroke="#FFFFFFFF">
<path d="M 326.750 694.406 C 326.338 695.373 326.000 696.577 326.000 697.082 C 326.000 697.604 331.712 697.906 339.250 697.783 L 352.500 697.565 339.767 697.253 C 327.425 696.950 327.041 696.875 327.267 694.795 C 327.460 693.013 327.373 692.947 326.750 694.406 "/></g>
<g fill="#FFFFFFFF" stroke="#FFFFFFFF">
<path d="M 652.998 706.750 C 652.997 707.163 659.184 707.250 666.748 706.944 L 680.500 706.389 666.750 706.194 C 659.188 706.088 652.999 706.338 652.998 706.750 "/></g>
<g fill="#FFFFFFFF" stroke="#FFFFFFFF">
<path d="M 335.252 706.944 C 342.816 707.250 349.003 707.163 349.002 706.750 C 349.001 706.338 342.813 706.088 335.250 706.194 L 321.500 706.389 335.252 706.944 "/></g>
<g fill="#FFFFFFFF" stroke="#FFFFFFFF">
<path d="M 707.500 718.046 L 694.500 718.592 707.833 718.796 C 715.167 718.908 721.017 718.663 720.833 718.250 C 720.650 717.838 714.650 717.746 707.500 718.046 "/></g>
<g fill="#FFFFFFFF" stroke="#FFFFFFFF">
<path d="M 280.998 718.250 C 280.999 718.663 286.963 718.913 294.250 718.807 L 307.500 718.614 294.248 718.057 C 286.959 717.751 280.997 717.838 280.998 718.250 "/></g>
<g fill="#FFFFFFFF" stroke="#FFFFFFFF">
<path d="M 702.157 706.944 C 709.669 707.250 715.605 707.163 715.348 706.750 C 715.092 706.338 708.946 706.088 701.691 706.194 L 688.500 706.389 702.157 706.944 "/></g>
<g fill="#FFFFFFFF" stroke="#FFFFFFFF">
<path d="M 286.652 706.750 C 286.395 707.163 292.331 707.250 299.843 706.944 L 313.500 706.389 300.309 706.194 C 293.054 706.088 286.908 706.338 286.652 706.750 "/></g>
<g fill="#FFFFFFFF" stroke="#FFFFFFFF">
<path d="M 720.655 697.250 C 720.909 697.663 726.491 698.000 733.059 698.000 C 739.627 698.000 745.000 697.663 745.000 697.250 C 745.000 696.838 739.418 696.500 732.595 696.500 C 725.773 696.500 720.400 696.838 720.655 697.250 "/></g>
<g fill="#FFFFFFFF" stroke="#FFFFFFFF">
<path d="M 257.000 697.250 C 257.000 698.111 280.376 698.291 281.230 697.436 C 281.540 697.127 276.215 696.789 269.397 696.686 C 262.578 696.584 257.000 696.838 257.000 697.250 "/></g>
</svg>
